<?xml version="1.0" encoding="utf-8"?>
<!-- Generator: Adobe Illustrator 21.0.0, SVG Export Plug-In . SVG Version: 6.00 Build 0)  -->
<svg version="1.1" id="Capa_1" xmlns="http://www.w3.org/2000/svg" xmlns:xlink="http://www.w3.org/1999/xlink" x="0px" y="0px"
	 viewBox="0 0 1295.1 97.3" style="enable-background:new 0 0 1295.1 97.3;" xml:space="preserve">
<style type="text/css">
	.st0{fill:#0BBABB;}
	.st1{fill:#FCB614;}
	.st2{fill:#E42287;}
	.st3{fill:#FFFFFF;}
</style>
<title>Recurso 2</title>
<g id="Capa_2">
	<g id="Capa_1-2">
		<rect x="-0.2" class="st0" width="1295.7" height="73"/>
		<rect x="-0.5" y="73.1" class="st1" width="336" height="7.7"/>
		<rect x="-0.5" y="65.4" class="st2" width="336" height="3.8"/>
		<path class="st1" d="M11.7,73.4c-6.6,0-12,5.3-12,11.9s5.4,11.9,12,11.9s12-5.3,12-11.9v0C23.7,78.8,18.3,73.4,11.7,73.4z
			 M11.7,89.9c-2.5,0-4.6-2-4.6-4.5s2-4.5,4.6-4.5s4.6,2,4.6,4.5C16.3,87.8,14.2,89.9,11.7,89.9z"/>
		<path class="st1" d="M32.9,73.4c-6.6,0-12,5.3-12,11.9c0,6.6,5.4,11.9,12,11.9s12-5.3,12-11.9c0,0,0,0,0,0
			C44.9,78.8,39.5,73.4,32.9,73.4z M32.9,89.9c-2.5,0-4.6-2-4.6-4.5s2-4.5,4.6-4.5c2.5,0,4.6,2,4.6,4.5
			C37.5,87.8,35.4,89.9,32.9,89.9z"/>
		<path class="st1" d="M54.1,73.4c-6.6,0-12,5.3-12,11.9c0,6.6,5.4,11.9,12,11.9s12-5.3,12-11.9c0,0,0,0,0,0
			C66.1,78.8,60.7,73.4,54.1,73.4z M54.1,89.9c-2.5,0-4.5-2.1-4.5-4.6c0-2.5,2.1-4.5,4.6-4.5c2.5,0,4.5,2,4.5,4.5
			C58.7,87.8,56.7,89.9,54.1,89.9C54.1,89.9,54.1,89.9,54.1,89.9z"/>
		<path class="st1" d="M75.3,73.4c-6.6,0-12,5.3-12,11.9s5.4,11.9,12,11.9c6.6,0,12-5.3,12-11.9v0C87.3,78.8,81.9,73.4,75.3,73.4z
			 M75.3,89.9c-2.5,0-4.6-2-4.6-4.5s2-4.5,4.6-4.5c2.5,0,4.6,2,4.6,4.5S77.9,89.9,75.3,89.9z"/>
		<path class="st1" d="M96.5,73.4c-6.6,0-12,5.3-12,11.9s5.4,11.9,12,11.9c6.6,0,12-5.3,12-11.9S103.2,73.4,96.5,73.4L96.5,73.4z
			 M96.5,89.9c-2.5,0-4.6-2-4.6-4.5s2-4.5,4.6-4.5c2.5,0,4.6,2,4.6,4.5S99.1,89.9,96.5,89.9z"/>
		<path class="st1" d="M117.7,73.4c-6.6,0-12,5.3-12,11.9s5.4,11.9,12,11.9c6.6,0,12-5.3,12-11.9S124.4,73.4,117.7,73.4L117.7,73.4z
			 M117.7,89.9c-2.5,0-4.6-2-4.6-4.5s2-4.5,4.6-4.5c2.5,0,4.6,2,4.6,4.5S120.3,89.9,117.7,89.9z"/>
		<path class="st1" d="M139,73.4c-6.6,0-12,5.3-12,11.9s5.4,11.9,12,11.9c6.6,0,12-5.3,12-11.9C150.9,78.8,145.6,73.4,139,73.4
			C139,73.4,139,73.4,139,73.4z M139,89.9c-2.5,0-4.6-2-4.6-4.5s2-4.5,4.6-4.5c2.5,0,4.6,2,4.6,4.5c0,0,0,0,0,0
			C143.5,87.8,141.5,89.9,139,89.9z"/>
		<path class="st1" d="M160.2,73.4c-6.6,0-12,5.3-12,11.9c0,6.6,5.4,11.9,12,11.9c6.6,0,12-5.3,12-11.9c0,0,0,0,0,0
			C172.1,78.8,166.8,73.4,160.2,73.4z M160.2,89.9c-2.5,0-4.6-2-4.6-4.5s2-4.5,4.6-4.5c2.5,0,4.6,2,4.6,4.5c0,0,0,0,0,0
			C164.7,87.8,162.7,89.9,160.2,89.9z"/>
		<path class="st1" d="M181.4,73.4c-6.6,0-12,5.3-12,11.9s5.4,11.9,12,11.9s12-5.3,12-11.9C193.3,78.8,188,73.4,181.4,73.4
			C181.4,73.4,181.4,73.4,181.4,73.4z M181.4,89.9c-2.5,0-4.6-2-4.6-4.5s2-4.5,4.6-4.5c2.5,0,4.6,2,4.6,4.5c0,0,0,0,0,0
			C185.9,87.8,183.9,89.9,181.4,89.9z"/>
		<path class="st1" d="M202.6,73.4c-6.6,0-12,5.3-12,11.9s5.4,11.9,12,11.9s12-5.3,12-11.9v0C214.5,78.8,209.2,73.4,202.6,73.4z
			 M202.6,89.9c-2.5,0-4.6-2-4.6-4.5s2-4.5,4.6-4.5c2.5,0,4.6,2,4.6,4.5c0,0,0,0,0,0C207.1,87.8,205.1,89.9,202.6,89.9z"/>
		<path class="st1" d="M223.8,73.4c-6.6,0-12,5.3-12,11.9s5.4,11.9,12,11.9c6.6,0,12-5.3,12-11.9c0,0,0,0,0,0
			C235.8,78.8,230.4,73.4,223.8,73.4z M223.8,89.9c-2.5,0-4.6-2-4.6-4.5c0-2.5,2-4.5,4.5-4.5s4.6,2,4.6,4.5c0,0,0,0,0,0
			C228.3,87.8,226.3,89.9,223.8,89.9z"/>
		<path class="st1" d="M245,73.4c-6.6,0-12,5.3-12,11.9s5.4,11.9,12,11.9c6.6,0,12-5.3,12-11.9v0C257,78.8,251.6,73.4,245,73.4z
			 M245,89.9c-2.5,0-4.6-2-4.6-4.5s2-4.5,4.6-4.5c2.5,0,4.6,2,4.6,4.5c0,0,0,0,0,0C249.5,87.8,247.5,89.9,245,89.9z"/>
		<path class="st1" d="M266.2,73.4c-6.6,0-12,5.3-12,11.9s5.4,11.9,12,11.9c6.6,0,12-5.3,12-11.9v0
			C278.2,78.8,272.8,73.4,266.2,73.4z M266.2,89.9c-2.5,0-4.6-2-4.6-4.5c0-2.5,2-4.5,4.6-4.5c2.5,0,4.6,2,4.6,4.5
			S268.7,89.9,266.2,89.9C266.2,89.9,266.2,89.9,266.2,89.9z"/>
		<path class="st1" d="M287.4,73.4c-6.6,0-12,5.3-12,11.9c0,6.6,5.4,11.9,12,11.9c6.6,0,12-5.3,12-11.9v0
			C299.4,78.8,294,73.4,287.4,73.4z M287.4,89.9c-2.5,0-4.6-2-4.6-4.5c0-2.5,2-4.5,4.6-4.5c2.5,0,4.6,2,4.6,4.5
			S289.9,89.9,287.4,89.9C287.4,89.9,287.4,89.9,287.4,89.9z"/>
		<path class="st1" d="M308.6,73.4c-6.6,0-12,5.3-12,11.9c0,6.6,5.4,11.9,12,11.9c6.6,0,12-5.3,12-11.9v0
			C320.6,78.8,315.2,73.4,308.6,73.4z M308.6,89.9c-2.5,0-4.6-2-4.6-4.5c0-2.5,2-4.5,4.6-4.5c2.5,0,4.6,2,4.6,4.5
			S311.1,89.9,308.6,89.9C308.6,89.9,308.6,89.9,308.6,89.9z"/>
		<path class="st1" d="M329.8,73.4c-6.6,0-12,5.3-12,11.9c0,6.6,5.4,11.9,12,11.9c6.6,0,12-5.3,12-11.9v0
			C341.8,78.8,336.4,73.4,329.8,73.4z M329.8,89.9c-2.5,0-4.6-2-4.6-4.5c0-2.5,2-4.5,4.6-4.5c2.5,0,4.6,2,4.6,4.5
			S332.3,89.9,329.8,89.9C329.8,89.9,329.8,89.9,329.8,89.9z"/>
		<path class="st2" d="M290,54.5c-0.3-2.6,0.1-5.3,1.3-7.7c1.8-4.5,4.7-8.5,8.4-11.7c3.7-3.1,8.4-4.9,13.3-5.1
			c1.7-0.1,3.3,0.2,4.8,0.9c1.5,0.7,2.6,2.2,2.8,3.8c0.2,2.9-2.7,5.1-5.4,6.3C308,44.5,297,43.3,290,54.5"/>
		<path class="st2" d="M284.8,56.1c0.3-2.6-0.1-5.3-1.3-7.7c-1.8-4.5-4.7-8.5-8.4-11.7c-3.7-3.1-8.4-4.9-13.3-5.1
			c-1.7-0.1-3.3,0.2-4.8,0.9c-1.5,0.7-2.6,2.2-2.8,3.8c-0.2,2.9,2.7,5.1,5.4,6.3C266.8,46,277.8,44.9,284.8,56.1"/>
		<path class="st2" d="M287.5,51.2c-2.3-5.6-3.9-11.6-4.6-17.7c-0.5-4.4-0.5-9,1.3-12.9c1.3-2.7,4.1-5.3,7-4.4
			c1.7,0.6,3,2.1,3.3,3.9c0.3,1.7,0.3,3.6-0.1,5.3C292.9,33.7,288.6,42.7,287.5,51.2"/>
		<path class="st3" d="M317.6,54.3c0,0-0.3,0.1-0.9,0.2s-1.4,0.2-2.4,0.3s-2.2,0.2-3.4,0.3c-1.3,0.1-2.6,0.1-3.9,0.1
			c-0.7,0-1.3,0-2,0s-1.3-0.1-1.9-0.1c-1.3-0.1-2.4-0.2-3.4-0.3s-1.8-0.3-2.4-0.3s-0.9-0.2-0.9-0.2s0.3-0.1,0.9-0.2s1.4-0.2,2.4-0.3
			s2.2-0.2,3.4-0.3c0.6,0,1.3-0.1,1.9-0.1s1.3,0,2,0c1.3,0,2.7,0,3.9,0.1c1.3,0.1,2.4,0.2,3.4,0.3s1.8,0.2,2.4,0.3
			S317.6,54.3,317.6,54.3z"/>
		<path class="st3" d="M301.8,59.4c0,0,0.1-0.2,0.3-0.6s0.5-0.8,0.9-1.4c1-1.4,2.1-2.6,3.3-3.8c1.2-1.2,2.5-2.3,3.8-3.2
			c0.6-0.4,1.1-0.7,1.4-0.9s0.6-0.3,0.6-0.3s-0.1,0.2-0.3,0.6s-0.5,0.8-0.9,1.4c-1,1.4-2.1,2.6-3.2,3.8c-1.2,1.2-2.5,2.3-3.8,3.2
			c-0.6,0.4-1.1,0.7-1.4,0.9S301.8,59.4,301.8,59.4z"/>
		<path class="st3" d="M312.1,59.4c0,0-0.2-0.1-0.6-0.3c-0.4-0.2-0.9-0.5-1.4-0.9c-1.4-1-2.6-2.1-3.8-3.2c-1.2-1.2-2.3-2.5-3.3-3.8
			c-0.4-0.6-0.7-1-0.9-1.4s-0.3-0.6-0.3-0.6s0.2,0.1,0.6,0.3c0.4,0.2,0.9,0.5,1.4,0.9c1.4,1,2.7,2.1,3.8,3.3
			c1.2,1.2,2.3,2.5,3.3,3.8c0.4,0.6,0.7,1,0.9,1.4S312.1,59.4,312.1,59.4z"/>
		<path class="st3" d="M277.1,54.3c0,0-0.3,0.1-0.9,0.2s-1.4,0.2-2.4,0.3c-1,0.1-2.2,0.2-3.4,0.3c-1.3,0.1-2.6,0.1-3.9,0.1
			c-0.7,0-1.3,0-2,0c-0.7,0-1.3-0.1-1.9-0.1c-1.3-0.1-2.4-0.2-3.4-0.3c-1-0.1-1.8-0.3-2.4-0.3c-0.6-0.1-0.9-0.2-0.9-0.2
			s0.3-0.1,0.9-0.2s1.4-0.2,2.4-0.3c1-0.1,2.2-0.2,3.4-0.3c0.6,0,1.3-0.1,1.9-0.1c0.7,0,1.3,0,2,0c1.3,0,2.7,0,3.9,0.1
			c1.3,0.1,2.4,0.2,3.4,0.3s1.8,0.2,2.4,0.3C276.7,54.2,277.1,54.3,277.1,54.3z"/>
		<path class="st3" d="M261.2,59.4c0,0,0.1-0.2,0.3-0.6s0.5-0.8,0.9-1.4c1-1.4,2.1-2.6,3.3-3.8c1.2-1.2,2.4-2.3,3.8-3.2
			c0.6-0.4,1.1-0.7,1.4-0.9c0.4-0.2,0.6-0.3,0.6-0.3s-0.1,0.2-0.3,0.6s-0.5,0.8-0.9,1.4c-1,1.4-2.1,2.6-3.3,3.8
			c-1.2,1.2-2.5,2.3-3.8,3.2c-0.6,0.4-1.1,0.7-1.4,0.9C261.4,59.3,261.2,59.4,261.2,59.4z"/>
		<path class="st3" d="M271.5,59.4c0,0-0.2-0.1-0.6-0.3c-0.4-0.2-0.9-0.5-1.4-0.9c-1.4-1-2.6-2.1-3.8-3.2c-1.2-1.2-2.3-2.4-3.2-3.8
			c-0.4-0.6-0.7-1-0.9-1.4c-0.2-0.4-0.3-0.6-0.3-0.6s0.2,0.1,0.6,0.3c0.4,0.2,0.9,0.5,1.4,0.9c1.4,1,2.6,2.1,3.8,3.2
			c1.2,1.2,2.3,2.5,3.3,3.8c0.4,0.6,0.7,1,0.9,1.4C271.4,59.2,271.5,59.4,271.5,59.4z"/>
		<path class="st3" d="M272.6,23.3l0.3,0.3"/>
		<path class="st3" d="M268.9,23.5c0,2.2,1.8,3.9,3.9,3.9c2.2,0,3.9-1.8,3.9-3.9c0-2.2-1.8-3.9-3.9-3.9
			C270.7,19.7,269,21.4,268.9,23.5z"/>
		<path class="st3" d="M302.1,23.3l0.3,0.3"/>
		<path class="st3" d="M298.5,23.5c0,2.2,1.8,3.9,3.9,3.9s3.9-1.8,3.9-3.9c0-2.2-1.8-3.9-3.9-3.9C300.2,19.7,298.5,21.4,298.5,23.5z
			"/>
		<path class="st2" d="M212.3,54.5c-0.3-2.6,0.1-5.3,1.3-7.7c1.8-4.5,4.7-8.5,8.4-11.7c3.8-3.1,8.5-4.9,13.4-5.1
			c1.7-0.1,3.3,0.2,4.8,0.9c1.5,0.7,2.6,2.2,2.8,3.9c0.2,2.9-2.7,5.1-5.4,6.3C230.3,44.5,219.3,43.3,212.3,54.5"/>
		<path class="st2" d="M207,56.1c0.3-2.6-0.1-5.3-1.3-7.7c-1.8-4.5-4.7-8.5-8.4-11.7c-3.7-3.1-8.4-4.9-13.3-5.1
			c-1.7-0.1-3.3,0.2-4.8,0.9c-1.5,0.7-2.6,2.2-2.8,3.8c-0.2,2.9,2.7,5.1,5.4,6.3C189,46,200.1,44.9,207,56.1"/>
		<path class="st2" d="M209.8,51.2c-2.4-5.6-3.9-11.6-4.6-17.7c-0.5-4.4-0.5-9,1.3-12.9c1.3-2.7,4.1-5.3,7-4.4
			c1.7,0.6,3,2.1,3.3,3.9c0.3,1.7,0.3,3.6-0.1,5.3C215.1,33.6,210.9,42.7,209.8,51.2"/>
		<path class="st3" d="M239.9,54.3c0,0-0.3,0.1-0.9,0.2s-1.4,0.2-2.4,0.3s-2.2,0.2-3.4,0.3s-2.6,0.1-3.9,0.1c-0.7,0-1.3,0-2,0
			c-0.7,0-1.3-0.1-1.9-0.1c-1.3-0.1-2.4-0.2-3.4-0.3c-1-0.1-1.8-0.3-2.4-0.3c-0.6-0.1-0.9-0.2-0.9-0.2s0.3-0.1,0.9-0.2
			s1.4-0.2,2.4-0.3c1-0.1,2.2-0.2,3.4-0.3c0.6,0,1.3-0.1,1.9-0.1c0.7,0,1.3,0,2,0c1.3,0,2.7,0,3.9,0.1s2.4,0.2,3.4,0.3
			s1.8,0.2,2.4,0.3C239.6,54.2,239.9,54.3,239.9,54.3z"/>
		<path class="st3" d="M224.1,59.4c0,0,0.1-0.2,0.3-0.6s0.5-0.8,0.9-1.4c1-1.4,2.1-2.6,3.3-3.8c1.2-1.2,2.4-2.3,3.8-3.2
			c0.6-0.4,1.1-0.7,1.4-0.9c0.4-0.2,0.6-0.3,0.6-0.3s-0.1,0.2-0.3,0.6c-0.2,0.3-0.5,0.8-0.9,1.4c-1,1.4-2.1,2.6-3.3,3.8
			c-1.2,1.2-2.5,2.3-3.8,3.2c-0.6,0.4-1.1,0.7-1.4,0.9C224.3,59.3,224.1,59.4,224.1,59.4z"/>
		<path class="st3" d="M234.3,59.4c0,0-0.2-0.1-0.6-0.3c-0.4-0.2-0.9-0.5-1.4-0.9c-1.4-1-2.6-2.1-3.8-3.2c-1.2-1.2-2.3-2.4-3.2-3.8
			c-0.4-0.6-0.7-1-0.9-1.4c-0.2-0.4-0.3-0.6-0.3-0.6s0.2,0.1,0.6,0.3s0.9,0.5,1.4,0.9c1.4,1,2.6,2.1,3.8,3.2
			c1.2,1.2,2.3,2.5,3.3,3.8c0.4,0.6,0.7,1,0.9,1.4S234.3,59.4,234.3,59.4z"/>
		<path class="st3" d="M199.4,54.3c0,0-0.3,0.1-0.9,0.2s-1.4,0.2-2.4,0.3c-1,0.1-2.2,0.2-3.4,0.3s-2.6,0.1-3.9,0.1c-0.7,0-1.3,0-2,0
			c-0.7,0-1.3-0.1-1.9-0.1c-1.3-0.1-2.4-0.2-3.4-0.3s-1.8-0.3-2.4-0.3s-0.9-0.2-0.9-0.2s0.3-0.1,0.9-0.2s1.4-0.2,2.4-0.3
			c1-0.1,2.2-0.2,3.4-0.3c0.6,0,1.3-0.1,1.9-0.1c0.7,0,1.3,0,2,0c1.3,0,2.7,0,3.9,0.1s2.4,0.2,3.4,0.3c1,0.1,1.8,0.2,2.4,0.3
			S199.4,54.3,199.4,54.3z"/>
		<path class="st3" d="M183.5,59.4c0,0,0.1-0.2,0.3-0.6c0.2-0.3,0.5-0.8,0.9-1.4c1-1.4,2.1-2.6,3.3-3.8c1.2-1.2,2.5-2.3,3.8-3.2
			c0.6-0.4,1.1-0.7,1.4-0.9c0.4-0.2,0.6-0.3,0.6-0.3s-0.1,0.2-0.3,0.6s-0.5,0.8-0.9,1.4c-1,1.4-2.1,2.6-3.3,3.8
			c-1.2,1.2-2.5,2.3-3.8,3.2c-0.6,0.4-1.1,0.7-1.4,0.9C183.7,59.3,183.5,59.4,183.5,59.4z"/>
		<path class="st3" d="M193.8,59.4c0,0-0.2-0.1-0.6-0.3s-0.9-0.5-1.4-0.9c-1.4-1-2.6-2.1-3.8-3.2c-1.2-1.2-2.3-2.5-3.3-3.8
			c-0.4-0.6-0.7-1-0.9-1.4c-0.2-0.4-0.3-0.6-0.3-0.6s0.2,0.1,0.6,0.3s0.9,0.5,1.4,0.9c1.4,1,2.6,2.1,3.8,3.2
			c1.2,1.2,2.3,2.5,3.3,3.8c0.4,0.6,0.7,1,0.9,1.4S193.8,59.4,193.8,59.4z"/>
		<path class="st3" d="M194.9,23.3l0.3,0.3"/>
		<path class="st3" d="M191.2,23.5c0,2.2,1.8,3.9,3.9,3.9c2.2,0,3.9-1.8,3.9-3.9s-1.8-3.9-3.9-3.9l0,0
			C193,19.7,191.2,21.4,191.2,23.5z"/>
		<path class="st3" d="M224.4,23.3l0.3,0.3"/>
		<path class="st3" d="M220.7,23.5c0,2.2,1.8,3.9,3.9,3.9c2.2,0,3.9-1.8,3.9-3.9s-1.8-3.9-3.9-3.9l0,0
			C222.5,19.7,220.8,21.4,220.7,23.5z"/>
		<path class="st2" d="M134.5,54.5c-0.3-2.6,0.1-5.3,1.3-7.7c1.8-4.5,4.7-8.5,8.4-11.7c3.7-3.1,8.4-4.9,13.3-5.1
			c1.7-0.1,3.3,0.2,4.8,0.9c1.5,0.7,2.6,2.2,2.8,3.9c0.2,2.9-2.7,5.1-5.4,6.3C152.6,44.5,141.5,43.3,134.5,54.5"/>
		<path class="st2" d="M129.3,56.1c0.3-2.6-0.1-5.3-1.3-7.7c-1.8-4.5-4.7-8.5-8.4-11.7c-3.7-3.1-8.4-4.9-13.3-5.1
			c-1.7-0.1-3.3,0.2-4.8,0.9c-1.5,0.7-2.6,2.2-2.8,3.8c-0.2,2.9,2.7,5.1,5.4,6.3C111.3,46,122.4,44.9,129.3,56.1"/>
		<path class="st2" d="M132.1,51.2c-2.4-5.6-3.9-11.6-4.6-17.7c-0.5-4.4-0.5-9,1.3-12.9c1.3-2.7,4.1-5.3,7-4.4
			c1.7,0.6,3,2.1,3.3,3.9c0.3,1.7,0.3,3.6-0.1,5.3C137.5,33.6,133.2,42.7,132.1,51.2"/>
		<path class="st3" d="M162.2,54.3c0,0-0.3,0.1-0.9,0.2s-1.4,0.2-2.4,0.3s-2.2,0.2-3.4,0.3s-2.6,0.1-3.9,0.1c-0.7,0-1.3,0-2,0
			c-0.7,0-1.3-0.1-1.9-0.1c-1.3-0.1-2.4-0.2-3.4-0.3c-1-0.1-1.8-0.3-2.4-0.3c-0.6-0.1-0.9-0.2-0.9-0.2s0.3-0.1,0.9-0.2
			s1.4-0.2,2.4-0.3c1-0.1,2.2-0.2,3.4-0.3c0.6,0,1.3-0.1,1.9-0.1c0.7,0,1.3,0,2,0c1.3,0,2.7,0,3.9,0.1s2.4,0.2,3.4,0.3
			s1.8,0.2,2.4,0.3C161.9,54.2,162.2,54.3,162.2,54.3z"/>
		<path class="st3" d="M146.3,59.4c0,0,0.1-0.2,0.3-0.6s0.5-0.8,0.9-1.4c1-1.4,2.1-2.6,3.3-3.8c1.2-1.2,2.5-2.3,3.8-3.2
			c0.6-0.4,1.1-0.7,1.4-0.9c0.4-0.2,0.6-0.3,0.6-0.3s-0.1,0.2-0.3,0.6s-0.5,0.8-0.9,1.4c-1,1.4-2.1,2.6-3.3,3.8
			c-1.2,1.2-2.5,2.3-3.8,3.2c-0.6,0.4-1.1,0.7-1.4,0.9C146.6,59.3,146.3,59.4,146.3,59.4z"/>
		<path class="st3" d="M156.6,59.4c0,0-0.2-0.1-0.6-0.3s-0.9-0.5-1.4-0.9c-1.4-1-2.6-2.1-3.8-3.2c-1.2-1.2-2.3-2.5-3.3-3.8
			c-0.4-0.6-0.7-1-0.9-1.4c-0.2-0.4-0.3-0.6-0.3-0.6s0.2,0.1,0.6,0.3s0.9,0.5,1.4,0.9c1.4,1,2.6,2.1,3.8,3.2
			c1.2,1.2,2.3,2.5,3.3,3.8c0.4,0.6,0.7,1,0.9,1.4S156.6,59.4,156.6,59.4z"/>
		<path class="st3" d="M121.6,54.3c0,0-0.3,0.1-0.9,0.2s-1.4,0.2-2.4,0.3c-1,0.1-2.2,0.2-3.4,0.3s-2.6,0.1-3.9,0.1c-0.7,0-1.3,0-2,0
			c-0.7,0-1.3-0.1-1.9-0.1c-1.3-0.1-2.4-0.2-3.4-0.3c-1-0.1-1.8-0.3-2.4-0.3c-0.6-0.1-0.9-0.2-0.9-0.2s0.3-0.1,0.9-0.2
			s1.4-0.2,2.4-0.3c1-0.1,2.2-0.2,3.4-0.3c0.6,0,1.3-0.1,1.9-0.1c0.7,0,1.3,0,2,0c1.3,0,2.7,0,3.9,0.1s2.4,0.2,3.4,0.3
			c1,0.1,1.8,0.2,2.4,0.3S121.6,54.3,121.6,54.3z"/>
		<path class="st3" d="M105.8,59.4c0,0,0.1-0.2,0.3-0.6c0.2-0.3,0.5-0.8,0.9-1.4c1-1.4,2.1-2.6,3.3-3.8c1.2-1.2,2.5-2.3,3.8-3.2
			c0.6-0.4,1.1-0.7,1.4-0.9s0.6-0.3,0.6-0.3s-0.1,0.2-0.3,0.6c-0.2,0.3-0.5,0.8-0.9,1.4c-1,1.4-2.1,2.6-3.3,3.8
			c-1.2,1.2-2.5,2.3-3.8,3.2c-0.6,0.4-1.1,0.7-1.4,0.9S105.8,59.4,105.8,59.4z"/>
		<path class="st3" d="M116.1,59.4c0,0-0.2-0.1-0.6-0.3s-0.9-0.5-1.4-0.9c-1.4-1-2.6-2.1-3.8-3.2c-1.2-1.2-2.3-2.5-3.3-3.8
			c-0.4-0.6-0.7-1-0.9-1.4c-0.2-0.4-0.3-0.6-0.3-0.6s0.2,0.1,0.6,0.3s0.9,0.5,1.4,0.9c1.4,1,2.6,2.1,3.8,3.2
			c1.2,1.2,2.3,2.5,3.3,3.8c0.4,0.6,0.7,1,0.9,1.4C116,59.2,116.1,59.4,116.1,59.4z"/>
		<path class="st3" d="M117.2,23.3l0.3,0.3"/>
		<path class="st3" d="M113.5,23.5c0,2.2,1.8,3.9,3.9,3.9s3.9-1.8,3.9-3.9s-1.8-3.9-3.9-3.9l0,0C115.3,19.7,113.5,21.4,113.5,23.5z"
			/>
		<path class="st3" d="M146.7,23.3l0.3,0.3"/>
		<path class="st3" d="M143,23.5c0,2.2,1.8,3.9,3.9,3.9c2.2,0,3.9-1.8,3.9-3.9s-1.8-3.9-3.9-3.9l0,0C144.8,19.7,143.1,21.4,143,23.5
			z"/>
		<path class="st2" d="M56.8,54.5c-0.3-2.6,0.1-5.3,1.3-7.7c1.8-4.5,4.7-8.5,8.4-11.7c3.7-3.1,8.4-4.9,13.3-5.1
			c1.7-0.1,3.3,0.2,4.8,0.9c1.5,0.7,2.6,2.2,2.8,3.9c0.2,2.9-2.7,5.1-5.4,6.3C74.8,44.5,63.8,43.3,56.8,54.5"/>
		<path class="st2" d="M51.6,56.1c0.3-2.6-0.1-5.3-1.3-7.7c-1.8-4.5-4.7-8.5-8.4-11.7c-3.7-3.1-8.4-4.9-13.3-5.1
			c-1.7-0.1-3.3,0.2-4.8,0.9c-1.5,0.7-2.6,2.2-2.8,3.8c-0.2,2.9,2.7,5.1,5.4,6.3C33.6,46,44.7,44.8,51.6,56.1"/>
		<path class="st2" d="M54.4,51.2c-2.3-5.7-3.9-11.6-4.6-17.7c-0.5-4.4-0.5-9,1.3-12.9c1.3-2.7,4.1-5.3,7-4.4
			c1.7,0.6,2.9,2.1,3.3,3.9c0.3,1.7,0.3,3.6-0.1,5.3C59.7,33.6,55.4,42.7,54.4,51.2"/>
		<path class="st3" d="M84.5,54.3c0,0-0.3,0.1-0.9,0.2c-0.6,0.1-1.4,0.2-2.4,0.3c-1,0.1-2.2,0.2-3.4,0.3s-2.6,0.1-3.9,0.1
			c-0.7,0-1.3,0-2,0s-1.3-0.1-1.9-0.1c-1.3-0.1-2.4-0.2-3.4-0.3c-1-0.1-1.8-0.3-2.4-0.3c-0.6-0.1-0.9-0.2-0.9-0.2s0.3-0.1,0.9-0.2
			s1.4-0.2,2.4-0.3c1-0.1,2.2-0.2,3.4-0.3c0.6,0,1.3-0.1,1.9-0.1s1.3,0,2,0c1.3,0,2.7,0,3.9,0.1s2.4,0.2,3.4,0.3
			c1,0.1,1.8,0.2,2.4,0.3C84.2,54.2,84.5,54.3,84.5,54.3z"/>
		<path class="st3" d="M68.6,59.4c0,0,0.1-0.2,0.3-0.6s0.5-0.8,0.9-1.4c1-1.4,2.1-2.6,3.3-3.8c1.2-1.2,2.5-2.3,3.8-3.2
			c0.6-0.4,1.1-0.7,1.4-0.9c0.4-0.2,0.6-0.3,0.6-0.3s-0.1,0.2-0.3,0.6s-0.5,0.8-0.9,1.4c-1,1.4-2.1,2.6-3.3,3.8
			c-1.2,1.2-2.5,2.3-3.8,3.2c-0.6,0.4-1.1,0.7-1.4,0.9S68.6,59.4,68.6,59.4z"/>
		<path class="st3" d="M78.9,59.4c0,0-0.2-0.1-0.6-0.3s-0.9-0.5-1.4-0.9c-1.4-1-2.6-2.1-3.8-3.2c-1.2-1.2-2.3-2.5-3.3-3.8
			c-0.4-0.6-0.7-1-0.9-1.4s-0.3-0.6-0.3-0.6s0.2,0.1,0.6,0.3c0.4,0.2,0.9,0.5,1.4,0.9c1.4,1,2.6,2.1,3.8,3.2
			c1.2,1.2,2.3,2.5,3.3,3.8c0.4,0.6,0.7,1,0.9,1.4S78.9,59.4,78.9,59.4z"/>
		<path class="st3" d="M43.9,54.3c0,0-0.3,0.1-0.9,0.2c-0.6,0.1-1.4,0.2-2.4,0.3s-2.2,0.2-3.4,0.3s-2.6,0.1-3.9,0.1
			c-0.7,0-1.3,0-2,0s-1.3-0.1-1.9-0.1c-1.3-0.1-2.4-0.2-3.4-0.3s-1.8-0.3-2.4-0.3s-0.9-0.2-0.9-0.2s0.3-0.1,0.9-0.2s1.4-0.2,2.4-0.3
			s2.2-0.2,3.4-0.3c0.6,0,1.3-0.1,1.9-0.1s1.3,0,2,0c1.3,0,2.7,0,3.9,0.1s2.4,0.2,3.4,0.3s1.8,0.2,2.4,0.3
			C43.6,54.2,43.9,54.3,43.9,54.3z"/>
		<path class="st3" d="M28.1,59.4c0,0,0.1-0.2,0.3-0.6c0.2-0.3,0.5-0.8,0.9-1.4c1-1.4,2.1-2.6,3.3-3.8c1.2-1.2,2.5-2.3,3.8-3.2
			c0.6-0.4,1.1-0.7,1.4-0.9c0.4-0.2,0.6-0.3,0.6-0.3s-0.1,0.2-0.3,0.6c-0.2,0.3-0.5,0.8-0.9,1.4c-1,1.4-2.1,2.6-3.3,3.8
			c-1.2,1.2-2.5,2.3-3.8,3.2c-0.6,0.4-1.1,0.7-1.4,0.9C28.3,59.3,28.1,59.4,28.1,59.4z"/>
		<path class="st3" d="M38.3,59.4c0,0-0.2-0.1-0.6-0.3s-0.9-0.5-1.4-0.9c-1.4-1-2.6-2.1-3.8-3.2c-1.2-1.2-2.3-2.5-3.3-3.8
			c-0.4-0.6-0.7-1-0.9-1.4c-0.2-0.4-0.3-0.6-0.3-0.6s0.2,0.1,0.6,0.3c0.4,0.2,0.9,0.5,1.4,0.9c1.4,1,2.6,2.1,3.8,3.2
			c1.2,1.2,2.3,2.5,3.3,3.8c0.4,0.6,0.7,1,0.9,1.4C38.2,59.2,38.3,59.4,38.3,59.4z"/>
		<path class="st3" d="M39.5,23.3l0.3,0.3"/>
		<path class="st3" d="M35.8,23.5c0,2.2,1.8,3.9,3.9,3.9c2.2,0,3.9-1.8,3.9-3.9s-1.8-3.9-3.9-3.9c0,0,0,0,0,0
			C37.6,19.7,35.8,21.4,35.8,23.5z"/>
		<path class="st3" d="M69,23.3l0.3,0.3"/>
		<path class="st3" d="M65.3,23.5c0,2.2,1.8,3.9,3.9,3.9c2.2,0,3.9-1.8,3.9-3.9s-1.8-3.9-3.9-3.9l0,0C67.1,19.7,65.4,21.4,65.3,23.5
			z"/>
		<rect x="318.7" y="73.1" class="st1" width="336" height="7.7"/>
		<rect x="318.7" y="65.4" class="st2" width="336" height="3.8"/>
		<path class="st1" d="M330.9,73.4c-6.6,0-12,5.3-12,11.9c0,6.6,5.4,11.9,12,11.9c6.6,0,12-5.3,12-11.9v0
			C342.8,78.8,337.5,73.4,330.9,73.4z M330.9,89.9c-2.5,0-4.6-2-4.6-4.5c0-2.5,2-4.5,4.6-4.5c2.5,0,4.6,2,4.6,4.5
			S333.4,89.9,330.9,89.9C330.9,89.9,330.9,89.9,330.9,89.9z"/>
		<path class="st1" d="M352.1,73.4c-6.6,0-12,5.3-12,11.9c0,6.6,5.4,11.9,12,11.9s12-5.3,12-11.9v0C364,78.8,358.7,73.4,352.1,73.4z
			 M352.1,89.9c-2.5,0-4.6-2-4.6-4.5c0-2.5,2-4.5,4.6-4.5c2.5,0,4.6,2,4.6,4.5S354.6,89.9,352.1,89.9
			C352.1,89.9,352.1,89.9,352.1,89.9z"/>
		<path class="st1" d="M373.3,73.4c-6.6,0-12,5.3-12,11.9c0,6.6,5.4,11.9,12,11.9c6.6,0,12-5.3,12-11.9v0
			C385.3,78.8,379.9,73.4,373.3,73.4z M373.3,89.9c-2.5,0-4.5-2.1-4.5-4.6s2.1-4.5,4.6-4.5c2.5,0,4.5,2,4.5,4.5
			C377.9,87.8,375.8,89.9,373.3,89.9C373.3,89.9,373.3,89.9,373.3,89.9z"/>
		<path class="st1" d="M394.5,73.4c-6.6,0-12,5.3-12,11.9c0,6.6,5.4,11.9,12,11.9c6.6,0,12-5.3,12-11.9v0
			C406.5,78.8,401.1,73.4,394.5,73.4z M394.5,89.9c-2.5,0-4.6-2-4.6-4.5c0-2.5,2-4.5,4.6-4.5c2.5,0,4.6,2,4.6,4.5
			S397,89.9,394.5,89.9C394.5,89.9,394.5,89.9,394.5,89.9z"/>
		<path class="st1" d="M415.7,73.4c-6.6,0-12,5.3-12,11.9c0,6.6,5.4,11.9,12,11.9c6.6,0,12-5.3,12-11.9v0
			C427.7,78.8,422.3,73.4,415.7,73.4z M415.7,89.9c-2.5,0-4.6-2-4.6-4.5c0-2.5,2-4.5,4.6-4.5c2.5,0,4.6,2,4.6,4.5
			S418.2,89.9,415.7,89.9C415.7,89.9,415.7,89.9,415.7,89.9z"/>
		<path class="st1" d="M436.9,73.4c-6.6,0-12,5.3-12,11.9c0,6.6,5.4,11.9,12,11.9c6.6,0,12-5.3,12-11.9v0
			C448.9,78.8,443.5,73.4,436.9,73.4z M436.9,89.9c-2.5,0-4.6-2-4.6-4.5c0-2.5,2-4.5,4.6-4.5c2.5,0,4.6,2,4.6,4.5
			S439.4,89.9,436.9,89.9C436.9,89.9,436.9,89.9,436.9,89.9z"/>
		<path class="st1" d="M458.1,73.4c-6.6,0-12,5.3-12,11.9c0,6.6,5.4,11.9,12,11.9c6.6,0,12-5.3,12-11.9v0
			C470.1,78.8,464.7,73.4,458.1,73.4z M458.1,89.9c-2.5,0-4.6-2-4.6-4.5c0-2.5,2-4.5,4.6-4.5c2.5,0,4.6,2,4.6,4.5
			S460.6,89.9,458.1,89.9C458.1,89.9,458.1,89.9,458.1,89.9z"/>
		<path class="st1" d="M479.3,73.4c-6.6,0-12,5.3-12,11.9c0,6.6,5.4,11.9,12,11.9c6.6,0,12-5.3,12-11.9c0,0,0,0,0,0
			C491.3,78.8,485.9,73.4,479.3,73.4z M479.3,89.9c-2.5,0-4.6-2-4.6-4.5c0-2.5,2-4.5,4.6-4.5c2.5,0,4.6,2,4.6,4.5
			S481.8,89.9,479.3,89.9C479.3,89.9,479.3,89.9,479.3,89.9z"/>
		<path class="st1" d="M500.5,73.4c-6.6,0-12,5.3-12,11.9c0,6.6,5.4,11.9,12,11.9s12-5.3,12-11.9v0
			C512.5,78.8,507.1,73.4,500.5,73.4z M500.5,89.9c-2.5,0-4.6-2-4.6-4.5c0-2.5,2-4.5,4.6-4.5c2.5,0,4.6,2,4.6,4.5
			S503,89.9,500.5,89.9C500.5,89.9,500.5,89.9,500.5,89.9z"/>
		<path class="st1" d="M521.7,73.4c-6.6,0-12,5.3-12,11.9c0,6.6,5.4,11.9,12,11.9s12-5.3,12-11.9v0
			C533.7,78.8,528.3,73.4,521.7,73.4z M521.7,89.9c-2.5,0-4.6-2-4.6-4.5s2-4.5,4.6-4.5c2.5,0,4.6,2,4.6,4.5c0,0,0,0,0,0
			C526.3,87.8,524.2,89.9,521.7,89.9z"/>
		<path class="st1" d="M542.9,73.4c-6.6,0-12,5.3-12,11.9c0,6.6,5.4,11.9,12,11.9s12-5.3,12-11.9C554.9,78.8,549.5,73.4,542.9,73.4
			L542.9,73.4z M542.9,89.9c-2.5,0-4.6-2-4.6-4.5c0-2.5,2-4.5,4.5-4.5c2.5,0,4.6,2,4.6,4.5c0,0,0,0,0,0
			C547.5,87.8,545.4,89.9,542.9,89.9z"/>
		<path class="st1" d="M564.1,73.4c-6.6,0-12,5.3-12,11.9s5.4,11.9,12,11.9s12-5.3,12-11.9v0C576.1,78.8,570.8,73.4,564.1,73.4z
			 M564.1,89.9c-2.5,0-4.6-2-4.6-4.5s2-4.5,4.6-4.5c2.5,0,4.6,2,4.6,4.5c0,0,0,0,0,0C568.7,87.8,566.7,89.9,564.1,89.9z"/>
		<path class="st1" d="M585.3,73.4c-6.6,0-12,5.3-12,11.9s5.4,11.9,12,11.9c6.6,0,12-5.3,12-11.9v0C597.3,78.8,592,73.4,585.3,73.4z
			 M585.3,89.9c-2.5,0-4.6-2-4.6-4.5s2-4.5,4.6-4.5c2.5,0,4.6,2,4.6,4.5c0,0,0,0,0,0C589.9,87.8,587.9,89.9,585.3,89.9z"/>
		<path class="st1" d="M606.6,73.4c-6.6,0-12,5.3-12,11.9s5.4,11.9,12,11.9s12-5.3,12-11.9v0C618.5,78.8,613.2,73.4,606.6,73.4z
			 M606.6,89.9c-2.5,0-4.6-2-4.6-4.5s2-4.5,4.6-4.5c2.5,0,4.6,2,4.6,4.5c0,0,0,0,0,0C611.1,87.8,609.1,89.9,606.6,89.9z"/>
		<path class="st1" d="M627.8,73.4c-6.6,0-12,5.3-12,11.9s5.4,11.9,12,11.9c6.6,0,12-5.3,12-11.9v0
			C639.7,78.8,634.4,73.4,627.8,73.4z M627.8,89.9c-2.5,0-4.6-2-4.6-4.5s2-4.5,4.6-4.5c2.5,0,4.6,2,4.6,4.5c0,0,0,0,0,0
			C632.3,87.8,630.3,89.9,627.8,89.9z"/>
		<path class="st1" d="M649,73.4c-6.6,0-12,5.3-12,11.9s5.4,11.9,12,11.9s12-5.3,12-11.9v0C660.9,78.8,655.6,73.4,649,73.4z
			 M649,89.9c-2.5,0-4.6-2-4.6-4.5s2-4.5,4.6-4.5c2.5,0,4.6,2,4.6,4.5c0,0,0,0,0,0C653.5,87.8,651.5,89.9,649,89.9z"/>
		<path class="st2" d="M609.1,54.5c-0.3-2.6,0.1-5.3,1.3-7.7c1.8-4.5,4.7-8.5,8.4-11.7c3.7-3.1,8.4-4.9,13.3-5.1
			c1.7-0.1,3.3,0.2,4.8,0.9c1.5,0.7,2.6,2.2,2.8,3.8c0.2,2.9-2.7,5.1-5.4,6.3C627.2,44.5,616.1,43.3,609.1,54.5"/>
		<path class="st2" d="M603.9,56.1c0.3-2.6-0.1-5.3-1.3-7.7c-1.8-4.5-4.7-8.5-8.4-11.7c-3.7-3.1-8.4-4.9-13.3-5.1
			c-1.7-0.1-3.3,0.2-4.8,0.9c-1.5,0.7-2.6,2.2-2.8,3.8c-0.2,2.9,2.7,5.1,5.4,6.3C585.9,46,596.9,44.9,603.9,56.1"/>
		<path class="st2" d="M606.7,51.2c-2.3-5.6-3.9-11.6-4.6-17.7c-0.5-4.4-0.5-9,1.3-12.9c1.3-2.7,4.1-5.3,7-4.4
			c1.7,0.6,3,2.1,3.3,3.9c0.3,1.7,0.3,3.6-0.1,5.3C612,33.7,607.7,42.7,606.7,51.2"/>
		<path class="st3" d="M636.8,54.3c0,0-0.3,0.1-0.9,0.2s-1.4,0.2-2.4,0.3c-1,0.1-2.2,0.2-3.4,0.3s-2.6,0.1-3.9,0.1c-0.7,0-1.3,0-2,0
			s-1.3-0.1-1.9-0.1c-1.3-0.1-2.4-0.2-3.4-0.3s-1.8-0.3-2.4-0.3c-0.6-0.1-0.9-0.2-0.9-0.2s0.3-0.1,0.9-0.2s1.4-0.2,2.4-0.3
			s2.2-0.2,3.4-0.3c0.6,0,1.3-0.1,1.9-0.1s1.3,0,2,0c1.3,0,2.7,0,3.9,0.1s2.4,0.2,3.4,0.3s1.8,0.2,2.4,0.3S636.8,54.3,636.8,54.3z"
			/>
		<path class="st3" d="M620.9,59.4c0,0,0.1-0.2,0.3-0.6c0.2-0.3,0.5-0.8,0.9-1.4c1-1.4,2.1-2.6,3.3-3.8c1.2-1.2,2.5-2.3,3.8-3.2
			c0.6-0.4,1.1-0.7,1.4-0.9c0.4-0.2,0.6-0.3,0.6-0.3s-0.1,0.2-0.3,0.6c-0.2,0.3-0.5,0.8-0.9,1.4c-1,1.4-2.1,2.6-3.2,3.8
			c-1.2,1.2-2.5,2.3-3.8,3.2c-0.6,0.4-1.1,0.7-1.4,0.9C621.2,59.3,620.9,59.4,620.9,59.4z"/>
		<path class="st3" d="M631.2,59.4c0,0-0.2-0.1-0.6-0.3s-0.9-0.5-1.4-0.9c-1.4-1-2.6-2.1-3.8-3.2c-1.2-1.2-2.3-2.5-3.3-3.8
			c-0.4-0.6-0.7-1-0.9-1.4s-0.3-0.6-0.3-0.6s0.2,0.1,0.6,0.3c0.4,0.2,0.9,0.5,1.4,0.9c1.4,1,2.7,2.1,3.8,3.3
			c1.2,1.2,2.3,2.5,3.3,3.8c0.4,0.6,0.7,1,0.9,1.4C631.1,59.2,631.2,59.4,631.2,59.4z"/>
		<path class="st3" d="M596.2,54.3c0,0-0.3,0.1-0.9,0.2s-1.4,0.2-2.4,0.3c-1,0.1-2.2,0.2-3.4,0.3s-2.6,0.1-3.9,0.1c-0.7,0-1.3,0-2,0
			s-1.3-0.1-1.9-0.1c-1.3-0.1-2.4-0.2-3.4-0.3s-1.8-0.3-2.4-0.3c-0.6-0.1-0.9-0.2-0.9-0.2s0.3-0.1,0.9-0.2s1.4-0.2,2.4-0.3
			s2.2-0.2,3.4-0.3c0.6,0,1.3-0.1,1.9-0.1s1.3,0,2,0c1.3,0,2.7,0,3.9,0.1s2.4,0.2,3.4,0.3c1,0.1,1.8,0.2,2.4,0.3
			C595.9,54.2,596.2,54.3,596.2,54.3z"/>
		<path class="st3" d="M580.3,59.4c0,0,0.1-0.2,0.3-0.6c0.2-0.3,0.5-0.8,0.9-1.4c1-1.4,2.1-2.6,3.3-3.8c1.2-1.2,2.4-2.3,3.8-3.2
			c0.6-0.4,1.1-0.7,1.4-0.9c0.4-0.2,0.6-0.3,0.6-0.3s-0.1,0.2-0.3,0.6c-0.2,0.3-0.5,0.8-0.9,1.4c-1,1.4-2.1,2.6-3.3,3.8
			c-1.2,1.2-2.5,2.3-3.8,3.2c-0.6,0.4-1.1,0.7-1.4,0.9C580.5,59.3,580.3,59.4,580.3,59.4z"/>
		<path class="st3" d="M590.6,59.4c0,0-0.2-0.1-0.6-0.3c-0.4-0.2-0.9-0.5-1.4-0.9c-1.4-1-2.6-2.1-3.8-3.2c-1.2-1.2-2.3-2.4-3.2-3.8
			c-0.4-0.6-0.7-1-0.9-1.4s-0.3-0.6-0.3-0.6s0.2,0.1,0.6,0.3c0.4,0.2,0.9,0.5,1.4,0.9c1.4,1,2.6,2.1,3.8,3.2
			c1.2,1.2,2.3,2.5,3.3,3.8c0.4,0.6,0.7,1,0.9,1.4C590.6,59.2,590.6,59.4,590.6,59.4z"/>
		<path class="st3" d="M591.8,23.3l0.3,0.3"/>
		<path class="st3" d="M588.1,23.5c0,2.2,1.8,3.9,3.9,3.9c2.2,0,3.9-1.8,3.9-3.9s-1.8-3.9-3.9-3.9l0,0
			C589.9,19.7,588.1,21.4,588.1,23.5z"/>
		<path class="st3" d="M621.3,23.3l0.3,0.3"/>
		<path class="st3" d="M617.6,23.5c0,2.2,1.8,3.9,3.9,3.9s3.9-1.8,3.9-3.9s-1.8-3.9-3.9-3.9l0,0C619.4,19.7,617.7,21.4,617.6,23.5z"
			/>
		<path class="st2" d="M531.4,54.5c-0.3-2.6,0.1-5.3,1.3-7.7c1.8-4.5,4.7-8.5,8.4-11.7c3.8-3.1,8.5-4.9,13.4-5.1
			c1.7-0.1,3.3,0.2,4.8,0.9c1.5,0.7,2.6,2.2,2.8,3.9c0.2,2.9-2.7,5.1-5.4,6.3C549.4,44.5,538.4,43.3,531.4,54.5"/>
		<path class="st2" d="M526.2,56.1c0.3-2.6-0.1-5.3-1.3-7.7c-1.8-4.5-4.7-8.5-8.4-11.7c-3.7-3.1-8.4-4.9-13.3-5.1
			c-1.7-0.1-3.3,0.2-4.8,0.9c-1.5,0.7-2.6,2.2-2.8,3.8c-0.2,2.9,2.7,5.1,5.4,6.3C508.2,46,519.2,44.9,526.2,56.1"/>
		<path class="st2" d="M529,51.2c-2.4-5.6-3.9-11.6-4.6-17.7c-0.5-4.4-0.5-9,1.3-12.9c1.3-2.7,4.1-5.3,7-4.4c1.7,0.6,3,2.1,3.3,3.9
			c0.3,1.7,0.3,3.6-0.1,5.3C534.3,33.6,530,42.7,529,51.2"/>
		<path class="st3" d="M559.1,54.3c0,0-0.3,0.1-0.9,0.2s-1.4,0.2-2.4,0.3c-1,0.1-2.2,0.2-3.4,0.3c-1.3,0.1-2.6,0.1-3.9,0.1
			c-0.7,0-1.3,0-2,0s-1.3-0.1-1.9-0.1c-1.3-0.1-2.4-0.2-3.4-0.3s-1.8-0.3-2.4-0.3c-0.6-0.1-0.9-0.2-0.9-0.2s0.3-0.1,0.9-0.2
			s1.4-0.2,2.4-0.3s2.2-0.2,3.4-0.3c0.6,0,1.3-0.1,1.9-0.1s1.3,0,2,0c1.3,0,2.7,0,3.9,0.1c1.3,0.1,2.4,0.2,3.4,0.3s1.8,0.2,2.4,0.3
			C558.7,54.2,559.1,54.3,559.1,54.3z"/>
		<path class="st3" d="M543.2,59.4c0,0,0.1-0.2,0.3-0.6c0.2-0.3,0.5-0.8,0.9-1.4c1-1.4,2.1-2.6,3.3-3.8c1.2-1.2,2.5-2.3,3.8-3.2
			c0.6-0.4,1.1-0.7,1.4-0.9s0.6-0.3,0.6-0.3s-0.1,0.2-0.3,0.6c-0.2,0.3-0.5,0.8-0.9,1.4c-1,1.4-2.1,2.6-3.3,3.8
			c-1.2,1.2-2.5,2.3-3.8,3.2c-0.6,0.4-1.1,0.7-1.4,0.9C543.4,59.3,543.2,59.4,543.2,59.4z"/>
		<path class="st3" d="M553.5,59.4c0,0-0.2-0.1-0.6-0.3s-0.9-0.5-1.4-0.9c-1.4-1-2.6-2.1-3.8-3.2c-1.2-1.2-2.3-2.4-3.2-3.8
			c-0.4-0.6-0.7-1-0.9-1.4s-0.3-0.6-0.3-0.6s0.2,0.1,0.6,0.3c0.4,0.2,0.9,0.5,1.4,0.9c1.4,1,2.6,2.1,3.8,3.2
			c1.2,1.2,2.3,2.5,3.3,3.8c0.4,0.6,0.7,1,0.9,1.4C553.4,59.2,553.5,59.4,553.5,59.4z"/>
		<path class="st3" d="M518.5,54.3c0,0-0.3,0.1-0.9,0.2s-1.4,0.2-2.4,0.3c-1,0.1-2.2,0.2-3.4,0.3c-1.3,0.1-2.6,0.1-3.9,0.1
			c-0.7,0-1.3,0-2,0s-1.3-0.1-1.9-0.1c-1.3-0.1-2.4-0.2-3.4-0.3s-1.8-0.3-2.4-0.3s-0.9-0.2-0.9-0.2s0.3-0.1,0.9-0.2s1.4-0.2,2.4-0.3
			s2.2-0.2,3.4-0.3c0.6,0,1.3-0.1,1.9-0.1s1.3,0,2,0c1.3,0,2.7,0,3.9,0.1c1.3,0.1,2.4,0.2,3.4,0.3s1.8,0.2,2.4,0.3
			S518.5,54.3,518.5,54.3z"/>
		<path class="st3" d="M502.6,59.4c0,0,0.1-0.2,0.3-0.6s0.5-0.8,0.9-1.4c1-1.4,2.1-2.6,3.3-3.8c1.2-1.2,2.5-2.3,3.8-3.2
			c0.6-0.4,1.1-0.7,1.4-0.9s0.6-0.3,0.6-0.3s-0.1,0.2-0.3,0.6s-0.5,0.8-0.9,1.4c-1,1.4-2.1,2.6-3.3,3.8c-1.2,1.2-2.5,2.3-3.8,3.2
			c-0.6,0.4-1.1,0.7-1.4,0.9C502.9,59.3,502.6,59.4,502.6,59.4z"/>
		<path class="st3" d="M512.9,59.4c0,0-0.2-0.1-0.6-0.3c-0.4-0.2-0.9-0.5-1.4-0.9c-1.4-1-2.6-2.1-3.8-3.2c-1.2-1.2-2.3-2.5-3.3-3.8
			c-0.4-0.6-0.7-1-0.9-1.4c-0.2-0.4-0.3-0.6-0.3-0.6s0.2,0.1,0.6,0.3c0.4,0.2,0.9,0.5,1.4,0.9c1.4,1,2.6,2.1,3.8,3.2
			c1.2,1.2,2.3,2.5,3.3,3.8c0.4,0.6,0.7,1,0.9,1.4C512.8,59.2,512.9,59.4,512.9,59.4z"/>
		<path class="st3" d="M514,23.3l0.3,0.3"/>
		<path class="st3" d="M510.3,23.5c0,2.2,1.8,3.9,3.9,3.9c2.2,0,3.9-1.8,3.9-3.9s-1.8-3.9-3.9-3.9l0,0
			C512.1,19.7,510.4,21.4,510.3,23.5z"/>
		<path class="st3" d="M543.6,23.3l0.3,0.3"/>
		<path class="st3" d="M539.9,23.5c0,2.2,1.8,3.9,3.9,3.9s3.9-1.8,3.9-3.9s-1.8-3.9-3.9-3.9l0,0C541.7,19.7,539.9,21.4,539.9,23.5z"
			/>
		<path class="st2" d="M453.7,54.5c-0.3-2.6,0.1-5.3,1.3-7.7c1.8-4.5,4.7-8.5,8.4-11.7c3.7-3.1,8.4-4.9,13.3-5.1
			c1.7-0.1,3.3,0.2,4.8,0.9c1.5,0.7,2.6,2.2,2.8,3.9c0.2,2.9-2.7,5.1-5.4,6.3C471.7,44.5,460.7,43.3,453.7,54.5"/>
		<path class="st2" d="M448.5,56.1c0.3-2.6-0.1-5.3-1.3-7.7c-1.8-4.5-4.7-8.5-8.4-11.7c-3.7-3.1-8.4-4.9-13.3-5.1
			c-1.7-0.1-3.3,0.2-4.8,0.9c-1.5,0.7-2.6,2.2-2.8,3.8c-0.2,2.9,2.7,5.1,5.4,6.3C430.5,46,441.5,44.9,448.5,56.1"/>
		<path class="st2" d="M451.3,51.2c-2.4-5.6-3.9-11.6-4.6-17.7c-0.5-4.4-0.5-9,1.3-12.9c1.3-2.7,4.1-5.3,7-4.4
			c1.7,0.6,3,2.1,3.3,3.9c0.3,1.7,0.3,3.6-0.1,5.3C456.6,33.6,452.3,42.7,451.3,51.2"/>
		<path class="st3" d="M481.4,54.3c0,0-0.3,0.1-0.9,0.2s-1.4,0.2-2.4,0.3s-2.2,0.2-3.4,0.3c-1.3,0.1-2.6,0.1-3.9,0.1
			c-0.7,0-1.3,0-2,0c-0.7,0-1.3-0.1-1.9-0.1c-1.3-0.1-2.4-0.2-3.4-0.3s-1.8-0.3-2.4-0.3s-0.9-0.2-0.9-0.2s0.3-0.1,0.9-0.2
			s1.4-0.2,2.4-0.3s2.2-0.2,3.4-0.3c0.6,0,1.3-0.1,1.9-0.1c0.7,0,1.3,0,2,0c1.3,0,2.7,0,3.9,0.1c1.3,0.1,2.4,0.2,3.4,0.3
			s1.8,0.2,2.4,0.3S481.4,54.3,481.4,54.3z"/>
		<path class="st3" d="M465.5,59.4c0,0,0.1-0.2,0.3-0.6s0.5-0.8,0.9-1.4c1-1.4,2.1-2.6,3.3-3.8c1.2-1.2,2.5-2.3,3.8-3.2
			c0.6-0.4,1.1-0.7,1.4-0.9c0.4-0.2,0.6-0.3,0.6-0.3s-0.1,0.2-0.3,0.6c-0.2,0.3-0.5,0.8-0.9,1.4c-1,1.4-2.1,2.6-3.3,3.8
			c-1.2,1.2-2.5,2.3-3.8,3.2c-0.6,0.4-1.1,0.7-1.4,0.9C465.7,59.3,465.5,59.4,465.5,59.4z"/>
		<path class="st3" d="M475.8,59.4c0,0-0.2-0.1-0.6-0.3c-0.4-0.2-0.9-0.5-1.4-0.9c-1.4-1-2.6-2.1-3.8-3.2c-1.2-1.2-2.3-2.5-3.3-3.8
			c-0.4-0.6-0.7-1-0.9-1.4s-0.3-0.6-0.3-0.6s0.2,0.1,0.6,0.3c0.4,0.2,0.9,0.5,1.4,0.9c1.4,1,2.6,2.1,3.8,3.2
			c1.2,1.2,2.3,2.5,3.3,3.8c0.4,0.6,0.7,1,0.9,1.4S475.8,59.4,475.8,59.4z"/>
		<path class="st3" d="M440.8,54.3c0,0-0.3,0.1-0.9,0.2s-1.4,0.2-2.4,0.3c-1,0.1-2.2,0.2-3.4,0.3c-1.3,0.1-2.6,0.1-3.9,0.1
			c-0.7,0-1.3,0-2,0c-0.7,0-1.3-0.1-1.9-0.1c-1.3-0.1-2.4-0.2-3.4-0.3c-1-0.1-1.8-0.3-2.4-0.3s-0.9-0.2-0.9-0.2s0.3-0.1,0.9-0.2
			s1.4-0.2,2.4-0.3c1-0.1,2.2-0.2,3.4-0.3c0.6,0,1.3-0.1,1.9-0.1c0.7,0,1.3,0,2,0c1.3,0,2.7,0,3.9,0.1c1.3,0.1,2.4,0.2,3.4,0.3
			s1.8,0.2,2.4,0.3C440.5,54.2,440.8,54.3,440.8,54.3z"/>
		<path class="st3" d="M424.9,59.4c0,0,0.1-0.2,0.3-0.6s0.5-0.8,0.9-1.4c1-1.4,2.1-2.6,3.3-3.8c1.2-1.2,2.5-2.3,3.8-3.2
			c0.6-0.4,1.1-0.7,1.4-0.9s0.6-0.3,0.6-0.3s-0.1,0.2-0.3,0.6s-0.5,0.8-0.9,1.4c-1,1.4-2.1,2.6-3.3,3.8c-1.2,1.2-2.5,2.3-3.8,3.2
			c-0.6,0.4-1.1,0.7-1.4,0.9S424.9,59.4,424.9,59.4z"/>
		<path class="st3" d="M435.2,59.4c0,0-0.2-0.1-0.6-0.3c-0.4-0.2-0.9-0.5-1.4-0.9c-1.4-1-2.6-2.1-3.8-3.2c-1.2-1.2-2.3-2.5-3.3-3.8
			c-0.4-0.6-0.7-1-0.9-1.4c-0.2-0.4-0.3-0.6-0.3-0.6s0.2,0.1,0.6,0.3c0.4,0.2,0.9,0.5,1.4,0.9c1.4,1,2.6,2.1,3.8,3.2
			c1.2,1.2,2.3,2.5,3.3,3.8c0.4,0.6,0.7,1,0.9,1.4S435.2,59.4,435.2,59.4z"/>
		<path class="st3" d="M436.3,23.3l0.3,0.3"/>
		<path class="st3" d="M432.7,23.5c0,2.2,1.8,3.9,3.9,3.9c2.2,0,3.9-1.8,3.9-3.9c0-2.2-1.8-3.9-3.9-3.9
			C434.4,19.7,432.7,21.4,432.7,23.5z"/>
		<path class="st3" d="M465.9,23.3l0.3,0.3"/>
		<path class="st3" d="M462.2,23.5c0,2.2,1.8,3.9,3.9,3.9c2.2,0,3.9-1.8,3.9-3.9c0-2.2-1.8-3.9-3.9-3.9
			C463.9,19.7,462.2,21.4,462.2,23.5z"/>
		<path class="st2" d="M376,54.5c-0.3-2.6,0.1-5.3,1.3-7.7c1.8-4.5,4.7-8.5,8.4-11.7c3.7-3.1,8.4-4.9,13.3-5.1
			c1.7-0.1,3.3,0.2,4.8,0.9c1.5,0.7,2.6,2.2,2.8,3.9c0.2,2.9-2.7,5.1-5.4,6.3C394,44.5,383,43.3,376,54.5"/>
		<path class="st2" d="M370.8,56.1c0.3-2.6-0.1-5.3-1.3-7.7c-1.8-4.5-4.7-8.5-8.4-11.7c-3.7-3.1-8.4-4.9-13.3-5.1
			c-1.7-0.1-3.3,0.2-4.8,0.9c-1.5,0.7-2.6,2.2-2.8,3.8c-0.2,2.9,2.7,5.1,5.4,6.3C352.8,46,363.8,44.8,370.8,56.1"/>
		<path class="st2" d="M373.6,51.2c-2.3-5.6-3.9-11.6-4.6-17.7c-0.5-4.4-0.5-9,1.3-12.9c1.3-2.7,4.1-5.3,7-4.4
			c1.7,0.6,3,2.1,3.3,3.9c0.3,1.7,0.3,3.6-0.1,5.3C378.9,33.7,374.6,42.7,373.6,51.2"/>
		<path class="st3" d="M403.7,54.3c0,0-0.3,0.1-0.9,0.2s-1.4,0.2-2.4,0.3c-1,0.1-2.2,0.2-3.4,0.3c-1.3,0.1-2.6,0.1-3.9,0.1
			c-0.7,0-1.3,0-2,0s-1.3-0.1-1.9-0.1c-1.3-0.1-2.4-0.2-3.4-0.3s-1.8-0.3-2.4-0.3c-0.6-0.1-0.9-0.2-0.9-0.2s0.3-0.1,0.9-0.2
			s1.4-0.2,2.4-0.3c1-0.1,2.2-0.2,3.4-0.3c0.6,0,1.3-0.1,1.9-0.1s1.3,0,2,0c1.3,0,2.7,0,3.9,0.1c1.3,0.1,2.4,0.2,3.4,0.3
			c1,0.1,1.8,0.2,2.4,0.3S403.7,54.3,403.7,54.3z"/>
		<path class="st3" d="M387.8,59.4c0,0,0.1-0.2,0.3-0.6s0.5-0.8,0.9-1.4c1-1.4,2.1-2.6,3.3-3.8c1.2-1.2,2.5-2.3,3.8-3.2
			c0.6-0.4,1.1-0.7,1.4-0.9c0.4-0.2,0.6-0.3,0.6-0.3s-0.1,0.2-0.3,0.6s-0.5,0.8-0.9,1.4c-1,1.4-2.1,2.6-3.3,3.8
			c-1.2,1.2-2.5,2.3-3.8,3.2c-0.6,0.4-1.1,0.7-1.4,0.9C388,59.3,387.8,59.4,387.8,59.4z"/>
		<path class="st3" d="M398.1,59.4c0,0-0.2-0.1-0.6-0.3c-0.4-0.2-0.9-0.5-1.4-0.9c-1.4-1-2.6-2.1-3.8-3.2c-1.2-1.2-2.3-2.5-3.3-3.8
			c-0.4-0.6-0.7-1-0.9-1.4c-0.2-0.4-0.3-0.6-0.3-0.6s0.2,0.1,0.6,0.3c0.4,0.2,0.9,0.5,1.4,0.9c1.4,1,2.6,2.1,3.8,3.2
			c1.2,1.2,2.3,2.5,3.3,3.8c0.4,0.6,0.7,1,0.9,1.4S398.1,59.4,398.1,59.4z"/>
		<path class="st3" d="M363.1,54.3c0,0-0.3,0.1-0.9,0.2s-1.4,0.2-2.4,0.3s-2.2,0.2-3.4,0.3c-1.3,0.1-2.6,0.1-3.9,0.1
			c-0.7,0-1.3,0-2,0s-1.3-0.1-1.9-0.1c-1.3-0.1-2.4-0.2-3.4-0.3s-1.8-0.3-2.4-0.3s-0.9-0.2-0.9-0.2s0.3-0.1,0.9-0.2s1.4-0.2,2.4-0.3
			s2.2-0.2,3.4-0.3c0.6,0,1.3-0.1,1.9-0.1s1.3,0,2,0c1.3,0,2.7,0,3.9,0.1c1.3,0.1,2.4,0.2,3.4,0.3s1.8,0.2,2.4,0.3
			S363.1,54.3,363.1,54.3z"/>
		<path class="st3" d="M347.2,59.4c0,0,0.1-0.2,0.3-0.6s0.5-0.8,0.9-1.4c1-1.4,2.1-2.6,3.3-3.8c1.2-1.2,2.5-2.3,3.8-3.2
			c0.6-0.4,1.1-0.7,1.4-0.9s0.6-0.3,0.6-0.3s-0.1,0.2-0.3,0.6s-0.5,0.8-0.9,1.4c-1,1.4-2.1,2.6-3.3,3.8c-1.2,1.2-2.5,2.3-3.8,3.2
			c-0.6,0.4-1.1,0.7-1.4,0.9C347.4,59.3,347.2,59.4,347.2,59.4z"/>
		<path class="st3" d="M357.5,59.4c0,0-0.2-0.1-0.6-0.3c-0.4-0.2-0.9-0.5-1.4-0.9c-1.4-1-2.6-2.1-3.8-3.2c-1.2-1.2-2.3-2.5-3.3-3.8
			c-0.4-0.6-0.7-1-0.9-1.4c-0.2-0.4-0.3-0.6-0.3-0.6s0.2,0.1,0.6,0.3c0.4,0.2,0.9,0.5,1.4,0.9c1.4,1,2.6,2.1,3.8,3.2
			c1.2,1.2,2.3,2.5,3.3,3.8c0.4,0.6,0.7,1,0.9,1.4S357.5,59.4,357.5,59.4z"/>
		<path class="st3" d="M358.6,23.3l0.3,0.3"/>
		<path class="st3" d="M354.9,23.5c0,2.2,1.8,3.9,3.9,3.9c2.2,0,3.9-1.8,3.9-3.9c0-2.2-1.8-3.9-3.9-3.9
			C356.7,19.7,355,21.4,354.9,23.5z"/>
		<path class="st3" d="M388.1,23.3l0.3,0.3"/>
		<path class="st3" d="M384.5,23.5c0,2.2,1.8,3.9,3.9,3.9c2.2,0,3.9-1.8,3.9-3.9c0-2.2-1.8-3.9-3.9-3.9
			C386.2,19.7,384.5,21.4,384.5,23.5z"/>
		<rect x="637.8" y="73.1" class="st1" width="336" height="7.7"/>
		<rect x="637.8" y="65.4" class="st2" width="336" height="3.8"/>
		<path class="st1" d="M650,73.4c-6.6,0-12,5.3-12,11.9s5.4,11.9,12,11.9s12-5.3,12-11.9v0C662,78.8,656.6,73.4,650,73.4z M650,89.9
			c-2.5,0-4.6-2-4.6-4.5s2-4.5,4.6-4.5c2.5,0,4.6,2,4.6,4.5c0,0,0,0,0,0C654.6,87.8,652.5,89.9,650,89.9z"/>
		<path class="st1" d="M671.2,73.4c-6.6,0-12,5.3-12,11.9s5.4,11.9,12,11.9s12-5.3,12-11.9v0C683.2,78.8,677.8,73.4,671.2,73.4z
			 M671.2,89.9c-2.5,0-4.6-2-4.6-4.5s2-4.5,4.6-4.5c2.5,0,4.6,2,4.6,4.5c0,0,0,0,0,0C675.8,87.8,673.7,89.9,671.2,89.9z"/>
		<path class="st1" d="M692.4,73.4c-6.6,0-12,5.3-12,11.9s5.4,11.9,12,11.9s12-5.3,12-11.9v0C704.4,78.8,699,73.4,692.4,73.4z
			 M692.4,89.9c-2.5,0-4.5-2.1-4.5-4.6c0-2.5,2.1-4.5,4.6-4.5c2.5,0,4.5,2,4.5,4.5C697,87.8,695,89.9,692.4,89.9
			C692.5,89.9,692.4,89.9,692.4,89.9z"/>
		<path class="st1" d="M713.6,73.4c-6.6,0-12,5.3-12,11.9s5.4,11.9,12,11.9s12-5.3,12-11.9v0C725.6,78.8,720.2,73.4,713.6,73.4z
			 M713.6,89.9c-2.5,0-4.6-2-4.6-4.5s2-4.5,4.6-4.5c2.5,0,4.6,2,4.6,4.5c0,0,0,0,0,0C718.2,87.8,716.2,89.9,713.6,89.9z"/>
		<path class="st1" d="M734.8,73.4c-6.6,0-12,5.3-12,11.9s5.4,11.9,12,11.9s12-5.3,12-11.9v0C746.8,78.8,741.5,73.4,734.8,73.4z
			 M734.8,89.9c-2.5,0-4.6-2-4.6-4.5s2-4.5,4.6-4.5c2.5,0,4.6,2,4.6,4.5c0,0,0,0,0,0C739.4,87.8,737.4,89.9,734.8,89.9z"/>
		<path class="st1" d="M756,73.4c-6.6,0-12,5.3-12,11.9s5.4,11.9,12,11.9c6.6,0,12-5.3,12-11.9v0C768,78.8,762.7,73.4,756,73.4z
			 M756,89.9c-2.5,0-4.6-2-4.6-4.5s2-4.5,4.6-4.5c2.5,0,4.6,2,4.6,4.5c0,0,0,0,0,0C760.6,87.8,758.6,89.9,756,89.9z"/>
		<path class="st1" d="M777.3,73.4c-6.6,0-12,5.3-12,11.9s5.4,11.9,12,11.9s12-5.3,12-11.9v0C789.2,78.8,783.9,73.4,777.3,73.4z
			 M777.3,89.9c-2.5,0-4.6-2-4.6-4.5s2-4.5,4.6-4.5c2.5,0,4.6,2,4.6,4.5c0,0,0,0,0,0C781.8,87.8,779.8,89.9,777.3,89.9z"/>
		<path class="st1" d="M798.5,73.4c-6.6,0-12,5.3-12,11.9c0,6.6,5.4,11.9,12,11.9s12-5.3,12-11.9c0,0,0,0,0,0
			C810.4,78.8,805.1,73.4,798.5,73.4z M798.5,89.9c-2.5,0-4.6-2-4.6-4.5s2-4.5,4.6-4.5c2.5,0,4.6,2,4.6,4.5c0,0,0,0,0,0
			C803,87.8,801,89.9,798.5,89.9z"/>
		<path class="st1" d="M819.7,73.4c-6.6,0-12,5.3-12,11.9s5.4,11.9,12,11.9s12-5.3,12-11.9v0C831.6,78.8,826.3,73.4,819.7,73.4z
			 M819.7,89.9c-2.5,0-4.6-2-4.6-4.5s2-4.5,4.6-4.5c2.5,0,4.6,2,4.6,4.5c0,0,0,0,0,0C824.2,87.8,822.2,89.9,819.7,89.9z"/>
		<path class="st1" d="M840.9,73.4c-6.6,0-12,5.3-12,11.9s5.4,11.9,12,11.9s12-5.3,12-11.9v0C852.8,78.8,847.5,73.4,840.9,73.4z
			 M840.9,89.9c-2.5,0-4.6-2-4.6-4.5s2-4.5,4.6-4.5c2.5,0,4.6,2,4.6,4.5c0,0,0,0,0,0C845.4,87.8,843.4,89.9,840.9,89.9z"/>
		<path class="st1" d="M862.1,73.4c-6.6,0-12,5.3-12,11.9c0,6.6,5.4,11.9,12,11.9s12-5.3,12-11.9C874.1,78.8,868.7,73.4,862.1,73.4
			L862.1,73.4z M862.1,89.9c-2.5,0-4.6-2-4.6-4.5c0-2.5,2-4.5,4.5-4.5c2.5,0,4.6,2,4.6,4.5c0,0,0,0,0,0
			C866.6,87.8,864.6,89.9,862.1,89.9z"/>
		<path class="st1" d="M883.3,73.4c-6.6,0-12,5.3-12,11.9s5.4,11.9,12,11.9s12-5.3,12-11.9v0C895.3,78.8,889.9,73.4,883.3,73.4z
			 M883.3,89.9c-2.5,0-4.6-2-4.6-4.5s2-4.5,4.6-4.5c2.5,0,4.6,2,4.6,4.5c0,0,0,0,0,0C887.8,87.8,885.8,89.9,883.3,89.9z"/>
		<path class="st1" d="M904.5,73.4c-6.6,0-12,5.3-12,11.9s5.4,11.9,12,11.9c6.6,0,12-5.3,12-11.9v0
			C916.5,78.8,911.1,73.4,904.5,73.4z M904.5,89.9c-2.5,0-4.6-2-4.6-4.5s2-4.5,4.6-4.5c2.5,0,4.6,2,4.6,4.5c0,0,0,0,0,0
			C909.1,87.8,907,89.9,904.5,89.9z"/>
		<path class="st1" d="M925.7,73.4c-6.6,0-12,5.3-12,11.9s5.4,11.9,12,11.9s12-5.3,12-11.9v0C937.7,78.8,932.3,73.4,925.7,73.4z
			 M925.7,89.9c-2.5,0-4.6-2-4.6-4.5s2-4.5,4.6-4.5c2.5,0,4.6,2,4.6,4.5c0,0,0,0,0,0C930.3,87.8,928.2,89.9,925.7,89.9z"/>
		<path class="st1" d="M946.9,73.4c-6.6,0-12,5.3-12,11.9s5.4,11.9,12,11.9c6.6,0,12-5.3,12-11.9v0
			C958.9,78.8,953.5,73.4,946.9,73.4z M946.9,89.9c-2.5,0-4.6-2-4.6-4.5s2-4.5,4.6-4.5c2.5,0,4.6,2,4.6,4.5c0,0,0,0,0,0
			C951.5,87.8,949.4,89.9,946.9,89.9z"/>
		<path class="st1" d="M968.1,73.4c-6.6,0-12,5.3-12,11.9s5.4,11.9,12,11.9s12-5.3,12-11.9v0C980.1,78.8,974.7,73.4,968.1,73.4z
			 M968.1,89.9c-2.5,0-4.6-2-4.6-4.5s2-4.5,4.6-4.5c2.5,0,4.6,2,4.6,4.5c0,0,0,0,0,0C972.7,87.8,970.6,89.9,968.1,89.9z"/>
		<path class="st2" d="M928.3,54.5c-0.3-2.6,0.1-5.3,1.3-7.7c1.8-4.5,4.7-8.5,8.4-11.7c3.7-3.1,8.4-4.9,13.3-5.1
			c1.7-0.1,3.3,0.2,4.8,0.9c1.5,0.7,2.6,2.2,2.8,3.8c0.2,2.9-2.7,5.1-5.4,6.3C946.3,44.5,935.3,43.3,928.3,54.5"/>
		<path class="st2" d="M923.1,56.1c0.3-2.6-0.1-5.3-1.3-7.7c-1.8-4.5-4.7-8.5-8.4-11.7c-3.7-3.1-8.4-4.9-13.3-5.1
			c-1.7-0.1-3.3,0.2-4.8,0.9c-1.5,0.7-2.6,2.2-2.8,3.8c-0.2,2.9,2.7,5.1,5.4,6.3C905.1,46,916.1,44.9,923.1,56.1"/>
		<path class="st2" d="M925.8,51.2c-2.3-5.6-3.9-11.6-4.6-17.7c-0.5-4.4-0.5-9,1.3-12.9c1.3-2.7,4.1-5.3,7-4.4
			c1.7,0.6,3,2.1,3.3,3.9c0.3,1.7,0.3,3.6-0.1,5.3C931.2,33.7,926.9,42.7,925.8,51.2"/>
		<path class="st3" d="M956,54.3c0,0-0.3,0.1-0.9,0.2s-1.4,0.2-2.4,0.3c-1,0.1-2.2,0.2-3.4,0.3s-2.6,0.1-3.9,0.1c-0.7,0-1.3,0-2,0
			s-1.3-0.1-1.9-0.1c-1.3-0.1-2.4-0.2-3.4-0.3s-1.8-0.3-2.4-0.3c-0.6-0.1-0.9-0.2-0.9-0.2s0.3-0.1,0.9-0.2s1.4-0.2,2.4-0.3
			s2.2-0.2,3.4-0.3c0.6,0,1.3-0.1,1.9-0.1s1.3,0,2,0c1.3,0,2.7,0,3.9,0.1s2.4,0.2,3.4,0.3s1.8,0.2,2.4,0.3S956,54.3,956,54.3z"/>
		<path class="st3" d="M940.1,59.4c0,0,0.1-0.2,0.3-0.6c0.2-0.3,0.5-0.8,0.9-1.4c1-1.4,2.1-2.6,3.3-3.8c1.2-1.2,2.5-2.3,3.8-3.2
			c0.6-0.4,1.1-0.7,1.4-0.9c0.4-0.2,0.6-0.3,0.6-0.3s-0.1,0.2-0.3,0.6c-0.2,0.3-0.5,0.8-0.9,1.4c-1,1.4-2.1,2.6-3.2,3.8
			c-1.2,1.2-2.5,2.3-3.8,3.2c-0.6,0.4-1.1,0.7-1.4,0.9C940.3,59.3,940.1,59.4,940.1,59.4z"/>
		<path class="st3" d="M950.4,59.4c0,0-0.2-0.1-0.6-0.3s-0.9-0.5-1.4-0.9c-1.4-1-2.6-2.1-3.8-3.2c-1.2-1.2-2.3-2.5-3.3-3.8
			c-0.4-0.6-0.7-1-0.9-1.4s-0.3-0.6-0.3-0.6s0.2,0.1,0.6,0.3s0.9,0.5,1.4,0.9c1.4,1,2.7,2.1,3.8,3.3c1.2,1.2,2.3,2.5,3.3,3.8
			c0.4,0.6,0.7,1,0.9,1.4S950.4,59.4,950.4,59.4z"/>
		<path class="st3" d="M915.4,54.3c0,0-0.3,0.1-0.9,0.2s-1.4,0.2-2.4,0.3c-1,0.1-2.2,0.2-3.4,0.3s-2.6,0.1-3.9,0.1c-0.7,0-1.3,0-2,0
			s-1.3-0.1-1.9-0.1c-1.3-0.1-2.4-0.2-3.4-0.3s-1.8-0.3-2.4-0.3c-0.6-0.1-0.9-0.2-0.9-0.2s0.3-0.1,0.9-0.2s1.4-0.2,2.4-0.3
			s2.2-0.2,3.4-0.3c0.6,0,1.3-0.1,1.9-0.1s1.3,0,2,0c1.3,0,2.7,0,3.9,0.1s2.4,0.2,3.4,0.3c1,0.1,1.8,0.2,2.4,0.3
			S915.4,54.3,915.4,54.3z"/>
		<path class="st3" d="M899.5,59.4c0,0,0.1-0.2,0.3-0.6c0.2-0.3,0.5-0.8,0.9-1.4c1-1.4,2.1-2.6,3.3-3.8c1.2-1.2,2.4-2.3,3.8-3.2
			c0.6-0.4,1.1-0.7,1.4-0.9c0.4-0.2,0.6-0.3,0.6-0.3s-0.1,0.2-0.3,0.6c-0.2,0.3-0.5,0.8-0.9,1.4c-1,1.4-2.1,2.6-3.3,3.8
			c-1.2,1.2-2.5,2.3-3.8,3.2c-0.6,0.4-1.1,0.7-1.4,0.9C899.7,59.3,899.5,59.4,899.5,59.4z"/>
		<path class="st3" d="M909.8,59.4c0,0-0.2-0.1-0.6-0.3c-0.4-0.2-0.9-0.5-1.4-0.9c-1.4-1-2.6-2.1-3.8-3.2c-1.2-1.2-2.3-2.4-3.2-3.8
			c-0.4-0.6-0.7-1-0.9-1.4s-0.3-0.6-0.3-0.6s0.2,0.1,0.6,0.3c0.4,0.2,0.9,0.5,1.4,0.9c1.4,1,2.6,2.1,3.8,3.2
			c1.2,1.2,2.3,2.5,3.3,3.8c0.4,0.6,0.7,1,0.9,1.4C909.7,59.2,909.8,59.4,909.8,59.4z"/>
		<path class="st3" d="M910.9,23.3l0.3,0.3"/>
		<path class="st3" d="M907.2,23.5c0,2.2,1.8,3.9,3.9,3.9c2.2,0,3.9-1.8,3.9-3.9s-1.8-3.9-3.9-3.9l0,0
			C909,19.7,907.3,21.4,907.2,23.5z"/>
		<path class="st3" d="M940.4,23.3l0.3,0.3"/>
		<path class="st3" d="M936.8,23.5c0,2.2,1.8,3.9,3.9,3.9s3.9-1.8,3.9-3.9s-1.8-3.9-3.9-3.9l0,0C938.5,19.7,936.8,21.4,936.8,23.5z"
			/>
		<path class="st2" d="M850.6,54.5c-0.3-2.6,0.1-5.3,1.3-7.7c1.8-4.5,4.7-8.5,8.4-11.7c3.8-3.1,8.5-4.9,13.4-5.1
			c1.7-0.1,3.3,0.2,4.8,0.9c1.5,0.7,2.6,2.2,2.8,3.9c0.2,2.9-2.7,5.1-5.4,6.3C868.6,44.5,857.6,43.3,850.6,54.5"/>
		<path class="st2" d="M845.4,56.1c0.3-2.6-0.1-5.3-1.3-7.7c-1.8-4.5-4.7-8.5-8.4-11.7c-3.7-3.1-8.4-4.9-13.3-5.1
			c-1.7-0.1-3.3,0.2-4.8,0.9c-1.5,0.7-2.6,2.2-2.8,3.8c-0.2,2.9,2.7,5.1,5.4,6.3C827.3,46,838.4,44.9,845.4,56.1"/>
		<path class="st2" d="M848.2,51.2c-2.4-5.6-3.9-11.6-4.6-17.7c-0.5-4.4-0.5-9,1.3-12.9c1.3-2.7,4.1-5.3,7-4.4
			c1.7,0.6,3,2.1,3.3,3.9c0.3,1.7,0.3,3.6-0.1,5.3C853.4,33.6,849.2,42.7,848.2,51.2"/>
		<path class="st3" d="M878.2,54.3c0,0-0.3,0.1-0.9,0.2s-1.4,0.2-2.4,0.3s-2.2,0.2-3.4,0.3c-1.3,0.1-2.6,0.1-3.9,0.1
			c-0.7,0-1.3,0-2,0s-1.3-0.1-1.9-0.1c-1.3-0.1-2.4-0.2-3.4-0.3s-1.8-0.3-2.4-0.3c-0.6-0.1-0.9-0.2-0.9-0.2s0.3-0.1,0.9-0.2
			s1.4-0.2,2.4-0.3c1-0.1,2.2-0.2,3.4-0.3c0.6,0,1.3-0.1,1.9-0.1s1.3,0,2,0c1.3,0,2.7,0,3.9,0.1c1.3,0.1,2.4,0.2,3.4,0.3
			s1.8,0.2,2.4,0.3C877.9,54.2,878.2,54.3,878.2,54.3z"/>
		<path class="st3" d="M862.4,59.4c0,0,0.1-0.2,0.3-0.6c0.2-0.3,0.5-0.8,0.9-1.4c1-1.4,2.1-2.6,3.3-3.8c1.2-1.2,2.5-2.3,3.8-3.2
			c0.6-0.4,1.1-0.7,1.4-0.9s0.6-0.3,0.6-0.3s-0.1,0.2-0.3,0.6c-0.2,0.3-0.5,0.8-0.9,1.4c-1,1.4-2.1,2.6-3.3,3.8
			c-1.2,1.2-2.5,2.3-3.8,3.2c-0.6,0.4-1.1,0.7-1.4,0.9C862.6,59.3,862.4,59.4,862.4,59.4z"/>
		<path class="st3" d="M872.7,59.4c0,0-0.2-0.1-0.6-0.3s-0.9-0.5-1.4-0.9c-1.4-1-2.6-2.1-3.8-3.2c-1.2-1.2-2.3-2.4-3.2-3.8
			c-0.4-0.6-0.7-1-0.9-1.4s-0.3-0.6-0.3-0.6s0.2,0.1,0.6,0.3c0.4,0.2,0.9,0.5,1.4,0.9c1.4,1,2.6,2.1,3.8,3.2
			c1.2,1.2,2.3,2.5,3.3,3.8c0.4,0.6,0.7,1,0.9,1.4C872.6,59.2,872.7,59.4,872.7,59.4z"/>
		<path class="st3" d="M837.7,54.3c0,0-0.3,0.1-0.9,0.2s-1.4,0.2-2.4,0.3c-1,0.1-2.2,0.2-3.4,0.3s-2.6,0.1-3.9,0.1c-0.7,0-1.3,0-2,0
			s-1.3-0.1-1.9-0.1c-1.3-0.1-2.4-0.2-3.4-0.3s-1.8-0.3-2.4-0.3c-0.6-0.1-0.9-0.2-0.9-0.2s0.3-0.1,0.9-0.2s1.4-0.2,2.4-0.3
			s2.2-0.2,3.4-0.3c0.6,0,1.3-0.1,1.9-0.1s1.3,0,2,0c1.3,0,2.7,0,3.9,0.1s2.4,0.2,3.4,0.3s1.8,0.2,2.4,0.3
			C837.3,54.2,837.7,54.3,837.7,54.3z"/>
		<path class="st3" d="M821.8,59.4c0,0,0.1-0.2,0.3-0.6c0.2-0.3,0.5-0.8,0.9-1.4c1-1.4,2.1-2.6,3.3-3.8c1.2-1.2,2.5-2.3,3.8-3.2
			c0.6-0.4,1.1-0.7,1.4-0.9c0.4-0.2,0.6-0.3,0.6-0.3s-0.1,0.2-0.3,0.6c-0.2,0.3-0.5,0.8-0.9,1.4c-1,1.4-2.1,2.6-3.3,3.8
			c-1.2,1.2-2.5,2.3-3.8,3.2c-0.6,0.4-1.1,0.7-1.4,0.9C822,59.3,821.8,59.4,821.8,59.4z"/>
		<path class="st3" d="M832.1,59.4c0,0-0.2-0.1-0.6-0.3s-0.9-0.5-1.4-0.9c-1.4-1-2.6-2.1-3.8-3.2c-1.2-1.2-2.3-2.5-3.3-3.8
			c-0.4-0.6-0.7-1-0.9-1.4s-0.3-0.6-0.3-0.6s0.2,0.1,0.6,0.3c0.4,0.2,0.9,0.5,1.4,0.9c1.4,1,2.6,2.1,3.8,3.2
			c1.2,1.2,2.3,2.5,3.3,3.8c0.4,0.6,0.7,1,0.9,1.4C832,59.2,832.1,59.4,832.1,59.4z"/>
		<path class="st3" d="M833.2,23.3l0.3,0.3"/>
		<path class="st3" d="M829.5,23.5c0,2.2,1.8,3.9,3.9,3.9c2.2,0,3.9-1.8,3.9-3.9s-1.8-3.9-3.9-3.9l0,0
			C831.3,19.7,829.5,21.4,829.5,23.5z"/>
		<path class="st3" d="M862.7,23.3l0.3,0.3"/>
		<path class="st3" d="M859.1,23.5c0,2.2,1.8,3.9,3.9,3.9c2.2,0,3.9-1.8,3.9-3.9s-1.8-3.9-3.9-3.9l0,0
			C860.8,19.7,859.1,21.4,859.1,23.5z"/>
		<path class="st2" d="M772.9,54.5c-0.3-2.6,0.1-5.3,1.3-7.7c1.8-4.5,4.7-8.5,8.4-11.7c3.7-3.1,8.4-4.9,13.3-5.1
			c1.7-0.1,3.3,0.2,4.8,0.9c1.5,0.7,2.6,2.2,2.8,3.9c0.2,2.9-2.7,5.1-5.4,6.3C790.9,44.5,779.8,43.3,772.9,54.5"/>
		<path class="st2" d="M767.6,56.1c0.3-2.6-0.1-5.3-1.3-7.7c-1.8-4.5-4.7-8.5-8.4-11.7c-3.7-3.1-8.4-4.9-13.3-5.1
			c-1.7-0.1-3.3,0.2-4.8,0.9c-1.5,0.7-2.6,2.2-2.8,3.8c-0.2,2.9,2.7,5.1,5.4,6.3C749.6,46,760.7,44.9,767.6,56.1"/>
		<path class="st2" d="M770.4,51.2c-2.4-5.6-3.9-11.6-4.6-17.7c-0.5-4.4-0.5-9,1.3-12.9c1.3-2.7,4.1-5.3,7-4.4
			c1.7,0.6,3,2.1,3.3,3.9c0.3,1.7,0.3,3.6-0.1,5.3C775.8,33.6,771.5,42.7,770.4,51.2"/>
		<path class="st3" d="M800.5,54.3c0,0-0.3,0.1-0.9,0.2s-1.4,0.2-2.4,0.3c-1,0.1-2.2,0.2-3.4,0.3s-2.6,0.1-3.9,0.1c-0.7,0-1.3,0-2,0
			s-1.3-0.1-1.9-0.1c-1.3-0.1-2.4-0.2-3.4-0.3s-1.8-0.3-2.4-0.3c-0.6-0.1-0.9-0.2-0.9-0.2s0.3-0.1,0.9-0.2s1.4-0.2,2.4-0.3
			s2.2-0.2,3.4-0.3c0.6,0,1.3-0.1,1.9-0.1s1.3,0,2,0c1.3,0,2.7,0,3.9,0.1s2.4,0.2,3.4,0.3s1.8,0.2,2.4,0.3S800.5,54.3,800.5,54.3z"
			/>
		<path class="st3" d="M784.6,59.4c0,0,0.1-0.2,0.3-0.6c0.2-0.3,0.5-0.8,0.9-1.4c1-1.4,2.1-2.6,3.3-3.8c1.2-1.2,2.5-2.3,3.8-3.2
			c0.6-0.4,1.1-0.7,1.4-0.9c0.4-0.2,0.6-0.3,0.6-0.3s-0.1,0.2-0.3,0.6c-0.2,0.3-0.5,0.8-0.9,1.4c-1,1.4-2.1,2.6-3.3,3.8
			c-1.2,1.2-2.5,2.3-3.8,3.2c-0.6,0.4-1.1,0.7-1.4,0.9C784.9,59.3,784.6,59.4,784.6,59.4z"/>
		<path class="st3" d="M794.9,59.4c0,0-0.2-0.1-0.6-0.3s-0.9-0.5-1.4-0.9c-1.4-1-2.6-2.1-3.8-3.2c-1.2-1.2-2.3-2.5-3.3-3.8
			c-0.4-0.6-0.7-1-0.9-1.4s-0.3-0.6-0.3-0.6s0.2,0.1,0.6,0.3c0.4,0.2,0.9,0.5,1.4,0.9c1.4,1,2.6,2.1,3.8,3.2
			c1.2,1.2,2.3,2.5,3.3,3.8c0.4,0.6,0.7,1,0.9,1.4C794.8,59.2,794.9,59.4,794.9,59.4z"/>
		<path class="st3" d="M759.9,54.3c0,0-0.3,0.1-0.9,0.2s-1.4,0.2-2.4,0.3c-1,0.1-2.2,0.2-3.4,0.3s-2.6,0.1-3.9,0.1c-0.7,0-1.3,0-2,0
			s-1.3-0.1-1.9-0.1c-1.3-0.1-2.4-0.2-3.4-0.3s-1.8-0.3-2.4-0.3c-0.6-0.1-0.9-0.2-0.9-0.2s0.3-0.1,0.9-0.2s1.4-0.2,2.4-0.3
			c1-0.1,2.2-0.2,3.4-0.3c0.6,0,1.3-0.1,1.9-0.1s1.3,0,2,0c1.3,0,2.7,0,3.9,0.1s2.4,0.2,3.4,0.3c1,0.1,1.8,0.2,2.4,0.3
			C759.6,54.2,759.9,54.3,759.9,54.3z"/>
		<path class="st3" d="M744.1,59.4c0,0,0.1-0.2,0.3-0.6c0.2-0.3,0.5-0.8,0.9-1.4c1-1.4,2.1-2.6,3.3-3.8c1.2-1.2,2.5-2.3,3.8-3.2
			c0.6-0.4,1.1-0.7,1.4-0.9s0.6-0.3,0.6-0.3s-0.1,0.2-0.3,0.6c-0.2,0.3-0.5,0.8-0.9,1.4c-1,1.4-2.1,2.6-3.3,3.8
			c-1.2,1.2-2.5,2.3-3.8,3.2c-0.6,0.4-1.1,0.7-1.4,0.9C744.3,59.3,744.1,59.4,744.1,59.4z"/>
		<path class="st3" d="M754.4,59.4c0,0-0.2-0.1-0.6-0.3s-0.9-0.5-1.4-0.9c-1.4-1-2.6-2.1-3.8-3.2c-1.2-1.2-2.3-2.5-3.3-3.8
			c-0.4-0.6-0.7-1-0.9-1.4s-0.3-0.6-0.3-0.6s0.2,0.1,0.6,0.3c0.4,0.2,0.9,0.5,1.4,0.9c1.4,1,2.6,2.1,3.8,3.2
			c1.2,1.2,2.3,2.5,3.3,3.8c0.4,0.6,0.7,1,0.9,1.4S754.4,59.4,754.4,59.4z"/>
		<path class="st3" d="M755.5,23.3l0.3,0.3"/>
		<path class="st3" d="M751.8,23.5c0,2.2,1.8,3.9,3.9,3.9c2.2,0,3.9-1.8,3.9-3.9s-1.8-3.9-3.9-3.9l0,0
			C753.6,19.7,751.8,21.4,751.8,23.5z"/>
		<path class="st3" d="M785,23.3l0.3,0.3"/>
		<path class="st3" d="M781.3,23.5c0,2.2,1.8,3.9,3.9,3.9c2.2,0,3.9-1.8,3.9-3.9s-1.8-3.9-3.9-3.9l0,0
			C783.1,19.7,781.4,21.4,781.3,23.5z"/>
		<path class="st2" d="M695.1,54.5c-0.3-2.6,0.1-5.3,1.3-7.7c1.8-4.5,4.7-8.5,8.4-11.7c3.7-3.1,8.4-4.9,13.3-5.1
			c1.7-0.1,3.3,0.2,4.8,0.9c1.5,0.7,2.6,2.2,2.8,3.9c0.2,2.9-2.7,5.1-5.4,6.3C713.1,44.5,702.1,43.3,695.1,54.5"/>
		<path class="st2" d="M689.9,56.1c0.3-2.6-0.1-5.3-1.3-7.7c-1.8-4.5-4.7-8.5-8.4-11.7c-3.7-3.1-8.4-4.9-13.3-5.1
			c-1.7-0.1-3.3,0.2-4.8,0.9c-1.5,0.7-2.6,2.2-2.8,3.8c-0.2,2.9,2.7,5.1,5.4,6.3C671.9,46,683,44.8,689.9,56.1"/>
		<path class="st2" d="M692.7,51.2c-2.3-5.6-3.9-11.6-4.6-17.7c-0.5-4.4-0.5-9,1.3-12.9c1.3-2.7,4.1-5.3,7-4.4
			c1.7,0.6,3,2.1,3.3,3.9c0.3,1.7,0.3,3.6-0.1,5.3C698.1,33.7,693.8,42.7,692.7,51.2"/>
		<path class="st3" d="M722.8,54.3c0,0-0.3,0.1-0.9,0.2s-1.4,0.2-2.4,0.3c-1,0.1-2.2,0.2-3.4,0.3c-1.3,0.1-2.6,0.1-3.9,0.1
			c-0.7,0-1.3,0-2,0s-1.3-0.1-1.9-0.1c-1.3-0.1-2.4-0.2-3.4-0.3s-1.8-0.3-2.4-0.3c-0.6-0.1-0.9-0.2-0.9-0.2s0.3-0.1,0.9-0.2
			s1.4-0.2,2.4-0.3s2.2-0.2,3.4-0.3c0.6,0,1.3-0.1,1.9-0.1s1.3,0,2,0c1.3,0,2.7,0,3.9,0.1c1.3,0.1,2.4,0.2,3.4,0.3s1.8,0.2,2.4,0.3
			C722.5,54.2,722.8,54.3,722.8,54.3z"/>
		<path class="st3" d="M706.9,59.4c0,0,0.1-0.2,0.3-0.6c0.2-0.3,0.5-0.8,0.9-1.4c1-1.4,2.1-2.6,3.3-3.8c1.2-1.2,2.5-2.3,3.8-3.2
			c0.6-0.4,1.1-0.7,1.4-0.9s0.6-0.3,0.6-0.3s-0.1,0.2-0.3,0.6c-0.2,0.3-0.5,0.8-0.9,1.4c-1,1.4-2.1,2.6-3.3,3.8
			c-1.2,1.2-2.5,2.3-3.8,3.2c-0.6,0.4-1.1,0.7-1.4,0.9C707.1,59.3,706.9,59.4,706.9,59.4z"/>
		<path class="st3" d="M717.2,59.4c0,0-0.2-0.1-0.6-0.3s-0.9-0.5-1.4-0.9c-1.4-1-2.6-2.1-3.8-3.2c-1.2-1.2-2.3-2.5-3.3-3.8
			c-0.4-0.6-0.7-1-0.9-1.4s-0.3-0.6-0.3-0.6s0.2,0.1,0.6,0.3c0.4,0.2,0.9,0.5,1.4,0.9c1.4,1,2.6,2.1,3.8,3.2
			c1.2,1.2,2.3,2.5,3.3,3.8c0.4,0.6,0.7,1,0.9,1.4C717.1,59.2,717.2,59.4,717.2,59.4z"/>
		<path class="st3" d="M682.2,54.3c0,0-0.3,0.1-0.9,0.2s-1.4,0.2-2.4,0.3c-1,0.1-2.2,0.2-3.4,0.3s-2.6,0.1-3.9,0.1c-0.7,0-1.3,0-2,0
			s-1.3-0.1-1.9-0.1c-1.3-0.1-2.4-0.2-3.4-0.3s-1.8-0.3-2.4-0.3c-0.6-0.1-0.9-0.2-0.9-0.2s0.3-0.1,0.9-0.2s1.4-0.2,2.4-0.3
			s2.2-0.2,3.4-0.3c0.6,0,1.3-0.1,1.9-0.1s1.3,0,2,0c1.3,0,2.7,0,3.9,0.1s2.4,0.2,3.4,0.3s1.8,0.2,2.4,0.3S682.2,54.3,682.2,54.3z"
			/>
		<path class="st3" d="M666.4,59.4c0,0,0.1-0.2,0.3-0.6c0.2-0.3,0.5-0.8,0.9-1.4c1-1.4,2.1-2.6,3.3-3.8c1.2-1.2,2.5-2.3,3.8-3.2
			c0.6-0.4,1.1-0.7,1.4-0.9c0.4-0.2,0.6-0.3,0.6-0.3s-0.1,0.2-0.3,0.6c-0.2,0.3-0.5,0.8-0.9,1.4c-1,1.4-2.1,2.6-3.3,3.8
			c-1.2,1.2-2.5,2.3-3.8,3.2c-0.6,0.4-1.1,0.7-1.4,0.9C666.6,59.3,666.4,59.4,666.4,59.4z"/>
		<path class="st3" d="M676.6,59.4c0,0-0.2-0.1-0.6-0.3s-0.9-0.5-1.4-0.9c-1.4-1-2.6-2.1-3.8-3.2c-1.2-1.2-2.3-2.5-3.3-3.8
			c-0.4-0.6-0.7-1-0.9-1.4s-0.3-0.6-0.3-0.6s0.2,0.1,0.6,0.3s0.9,0.5,1.4,0.9c1.4,1,2.6,2.1,3.8,3.2c1.2,1.2,2.3,2.5,3.3,3.8
			c0.4,0.6,0.7,1,0.9,1.4C676.6,59.2,676.6,59.4,676.6,59.4z"/>
		<path class="st3" d="M677.8,23.3l0.3,0.3"/>
		<path class="st3" d="M674.1,23.5c0,2.2,1.8,3.9,3.9,3.9c2.2,0,3.9-1.8,3.9-3.9s-1.8-3.9-3.9-3.9l0,0
			C675.9,19.7,674.1,21.4,674.1,23.5z"/>
		<path class="st3" d="M707.3,23.3l0.3,0.3"/>
		<path class="st3" d="M703.6,23.5c0,2.2,1.8,3.9,3.9,3.9s3.9-1.8,3.9-3.9s-1.8-3.9-3.9-3.9l0,0C705.4,19.7,703.7,21.4,703.6,23.5z"
			/>
		<rect x="957" y="73.1" class="st1" width="336" height="7.7"/>
		<rect x="957" y="65.4" class="st2" width="336" height="3.8"/>
		<path class="st1" d="M969.2,73.4c-6.6,0-12,5.3-12,11.9s5.4,11.9,12,11.9s12-5.3,12-11.9v0C981.1,78.8,975.8,73.4,969.2,73.4z
			 M969.2,89.9c-2.5,0-4.6-2-4.6-4.5s2-4.5,4.6-4.5c2.5,0,4.6,2,4.6,4.5c0,0,0,0,0,0C973.7,87.8,971.7,89.9,969.2,89.9z"/>
		<path class="st1" d="M990.4,73.4c-6.6,0-12,5.3-12,11.9s5.4,11.9,12,11.9s12-5.3,12-11.9v0C1002.3,78.8,997,73.4,990.4,73.4z
			 M990.4,89.9c-2.5,0-4.6-2-4.6-4.5s2-4.5,4.6-4.5c2.5,0,4.6,2,4.6,4.5c0,0,0,0,0,0C994.9,87.8,992.9,89.9,990.4,89.9z"/>
		<path class="st1" d="M1011.6,73.4c-6.6,0-12,5.3-12,11.9s5.4,11.9,12,11.9s12-5.3,12-11.9v0C1023.6,78.8,1018.2,73.4,1011.6,73.4z
			 M1011.6,89.9c-2.5,0-4.6-2-4.6-4.5s2-4.5,4.6-4.5c2.5,0,4.6,2,4.6,4.5c0,0,0,0,0,0C1016.1,87.8,1014.1,89.9,1011.6,89.9z"/>
		<path class="st1" d="M1032.8,73.4c-6.6,0-12,5.3-12,11.9c0,6.6,5.4,11.9,12,11.9c6.6,0,12-5.3,12-11.9
			C1044.8,78.8,1039.4,73.4,1032.8,73.4L1032.8,73.4z M1032.8,89.9c-2.5,0-4.6-2-4.6-4.5c0-2.5,2-4.5,4.6-4.5c2.5,0,4.6,2,4.6,4.5
			C1037.3,87.8,1035.3,89.9,1032.8,89.9C1032.8,89.9,1032.8,89.9,1032.8,89.9z"/>
		<path class="st1" d="M1054,73.4c-6.6,0-12,5.3-12,11.9s5.4,11.9,12,11.9c6.6,0,12-5.3,12-11.9C1066,78.8,1060.6,73.4,1054,73.4
			L1054,73.4z M1054,89.9c-2.5,0-4.6-2-4.6-4.5c0-2.5,2-4.5,4.6-4.5s4.6,2,4.6,4.5C1058.6,87.8,1056.5,89.9,1054,89.9
			C1054,89.9,1054,89.9,1054,89.9z"/>
		<path class="st1" d="M1075.2,73.4c-6.6,0-12,5.3-12,11.9s5.4,11.9,12,11.9c6.6,0,12-5.3,12-11.9
			C1087.2,78.8,1081.8,73.4,1075.2,73.4L1075.2,73.4z M1075.2,89.9c-2.5,0-4.6-2-4.6-4.5c0-2.5,2-4.5,4.6-4.5s4.6,2,4.6,4.5
			C1079.8,87.8,1077.7,89.9,1075.2,89.9C1075.2,89.9,1075.2,89.9,1075.2,89.9z"/>
		<path class="st1" d="M1096.4,73.4c-6.6,0-12,5.3-12,11.9s5.4,11.9,12,11.9c6.6,0,12-5.3,12-11.9
			C1108.4,78.8,1103,73.4,1096.4,73.4L1096.4,73.4z M1096.4,89.9c-2.5,0-4.6-2-4.6-4.5c0-2.5,2-4.5,4.6-4.5c2.5,0,4.6,2,4.6,4.5
			C1101,87.8,1098.9,89.9,1096.4,89.9C1096.4,89.9,1096.4,89.9,1096.4,89.9z"/>
		<path class="st1" d="M1117.6,73.4c-6.6,0-12,5.3-12,11.9c0,6.6,5.4,11.9,12,11.9c6.6,0,12-5.3,12-11.9c0,0,0,0,0,0
			C1129.6,78.8,1124.2,73.4,1117.6,73.4z M1117.6,89.9c-2.5,0-4.6-2-4.6-4.5c0-2.5,2-4.5,4.6-4.5c2.5,0,4.6,2,4.6,4.5
			C1122.2,87.8,1120.1,89.9,1117.6,89.9C1117.6,89.9,1117.6,89.9,1117.6,89.9z"/>
		<path class="st1" d="M1138.8,73.4c-6.6,0-12,5.3-12,11.9s5.4,11.9,12,11.9c6.6,0,12-5.3,12-11.9
			C1150.8,78.8,1145.4,73.4,1138.8,73.4L1138.8,73.4z M1138.8,89.9c-2.5,0-4.6-2-4.6-4.5c0-2.5,2-4.5,4.6-4.5c2.5,0,4.6,2,4.6,4.5
			C1143.4,87.8,1141.3,89.9,1138.8,89.9C1138.8,89.9,1138.8,89.9,1138.8,89.9z"/>
		<path class="st1" d="M1160,73.4c-6.6,0-12,5.3-12,11.9s5.4,11.9,12,11.9c6.6,0,12-5.3,12-11.9C1172,78.8,1166.6,73.4,1160,73.4
			L1160,73.4z M1160,89.9c-2.5,0-4.6-2-4.6-4.5c0-2.5,2-4.5,4.6-4.5c2.5,0,4.6,2,4.6,4.5C1164.6,87.8,1162.5,89.9,1160,89.9
			C1160,89.9,1160,89.9,1160,89.9z"/>
		<path class="st1" d="M1181.2,73.4c-6.6,0-12,5.3-12,11.9s5.4,11.9,12,11.9c6.6,0,12-5.3,12-11.9
			C1193.2,78.8,1187.8,73.4,1181.2,73.4L1181.2,73.4z M1181.2,89.9c-2.5,0-4.6-2-4.6-4.5c0-2.5,2-4.5,4.6-4.5c2.5,0,4.6,2,4.6,4.5
			C1185.8,87.8,1183.8,89.9,1181.2,89.9C1181.2,89.9,1181.2,89.9,1181.2,89.9z"/>
		<path class="st1" d="M1202.4,73.4c-6.6,0-12,5.3-12,11.9s5.4,11.9,12,11.9c6.6,0,12-5.3,12-11.9
			C1214.4,78.8,1209.1,73.4,1202.4,73.4L1202.4,73.4z M1202.4,89.9c-2.5,0-4.6-2-4.6-4.5c0-2.5,2-4.5,4.6-4.5s4.6,2,4.6,4.5
			C1207,87.8,1205,89.9,1202.4,89.9C1202.4,89.9,1202.4,89.9,1202.4,89.9z"/>
		<path class="st1" d="M1223.6,73.4c-6.6,0-12,5.3-12,11.9s5.4,11.9,12,11.9c6.6,0,12-5.3,12-11.9
			C1235.6,78.8,1230.3,73.4,1223.6,73.4L1223.6,73.4z M1223.6,89.9c-2.5,0-4.6-2-4.6-4.5c0-2.5,2-4.5,4.6-4.5s4.6,2,4.6,4.5
			C1228.2,87.8,1226.2,89.9,1223.6,89.9C1223.6,89.9,1223.6,89.9,1223.6,89.9z"/>
		<path class="st1" d="M1244.9,73.4c-6.6,0-12,5.3-12,11.9s5.4,11.9,12,11.9c6.6,0,12-5.3,12-11.9
			C1256.8,78.8,1251.5,73.4,1244.9,73.4L1244.9,73.4z M1244.9,89.9c-2.5,0-4.6-2-4.6-4.5c0-2.5,2-4.5,4.6-4.5s4.6,2,4.6,4.5
			C1249.4,87.8,1247.4,89.9,1244.9,89.9C1244.9,89.9,1244.9,89.9,1244.9,89.9z"/>
		<path class="st1" d="M1266.1,73.4c-6.6,0-12,5.3-12,11.9s5.4,11.9,12,11.9c6.6,0,12-5.3,12-11.9
			C1278,78.8,1272.7,73.4,1266.1,73.4L1266.1,73.4z M1266.1,89.9c-2.5,0-4.6-2-4.6-4.5c0-2.5,2-4.5,4.6-4.5s4.6,2,4.6,4.5
			C1270.6,87.8,1268.6,89.9,1266.1,89.9C1266.1,89.9,1266.1,89.9,1266.1,89.9z"/>
		<path class="st1" d="M1287.3,73.4c-6.6,0-12,5.3-12,11.9s5.4,11.9,12,11.9c6.6,0,12-5.3,12-11.9
			C1299.3,78.8,1293.9,73.4,1287.3,73.4L1287.3,73.4z M1287.3,89.9c-2.5,0-4.6-2-4.6-4.5c0-2.5,2-4.5,4.6-4.5c2.5,0,4.6,2,4.6,4.5
			C1291.8,87.8,1289.8,89.9,1287.3,89.9C1287.3,89.9,1287.3,89.9,1287.3,89.9z"/>
		<path class="st2" d="M1247.4,54.5c-0.3-2.6,0.1-5.3,1.3-7.7c1.8-4.5,4.7-8.5,8.4-11.7c3.7-3.1,8.4-4.9,13.3-5.1
			c1.7-0.1,3.3,0.2,4.8,0.9c1.5,0.7,2.6,2.2,2.8,3.9c0.2,2.9-2.7,5.1-5.4,6.3C1265.4,44.5,1254.4,43.3,1247.4,54.5"/>
		<path class="st2" d="M1242.2,56.1c0.3-2.6-0.1-5.3-1.3-7.7c-1.8-4.5-4.7-8.5-8.4-11.7c-3.7-3.1-8.4-4.9-13.3-5.1
			c-1.7-0.1-3.3,0.2-4.8,0.9c-1.5,0.7-2.6,2.2-2.8,3.8c-0.2,2.9,2.7,5.1,5.4,6.3C1224.2,46,1235.2,44.9,1242.2,56.1"/>
		<path class="st2" d="M1245,51.2c-2.3-5.6-3.9-11.6-4.6-17.7c-0.5-4.4-0.5-9,1.3-12.9c1.3-2.7,4.1-5.3,7-4.4c1.7,0.6,3,2.1,3.3,3.9
			c0.3,1.7,0.3,3.6-0.1,5.3C1250.3,33.7,1246,42.7,1245,51.2"/>
		<path class="st3" d="M1275.1,54.3c0,0-0.3,0.1-0.9,0.2c-0.6,0.1-1.4,0.2-2.4,0.3s-2.2,0.2-3.4,0.3c-1.3,0.1-2.6,0.1-3.9,0.1
			c-0.7,0-1.3,0-2,0c-0.7,0-1.3-0.1-1.9-0.1c-1.3-0.1-2.4-0.2-3.4-0.3s-1.8-0.3-2.4-0.3c-0.6-0.1-0.9-0.2-0.9-0.2s0.3-0.1,0.9-0.2
			c0.6-0.1,1.4-0.2,2.4-0.3c1-0.1,2.2-0.2,3.4-0.3c0.6,0,1.3-0.1,1.9-0.1c0.7,0,1.3,0,2,0c1.3,0,2.7,0,3.9,0.1
			c1.3,0.1,2.4,0.2,3.4,0.3s1.8,0.2,2.4,0.3S1275.1,54.3,1275.1,54.3z"/>
		<path class="st3" d="M1259.2,59.4c0,0,0.1-0.2,0.3-0.6c0.2-0.3,0.5-0.8,0.9-1.4c1-1.4,2.1-2.6,3.3-3.8c1.2-1.2,2.5-2.3,3.8-3.2
			c0.6-0.4,1.1-0.7,1.4-0.9c0.4-0.2,0.6-0.3,0.6-0.3s-0.1,0.2-0.3,0.6c-0.2,0.3-0.5,0.8-0.9,1.4c-1,1.4-2.1,2.6-3.3,3.8
			c-1.2,1.2-2.5,2.3-3.8,3.2c-0.6,0.4-1.1,0.7-1.4,0.9C1259.5,59.3,1259.2,59.4,1259.2,59.4z"/>
		<path class="st3" d="M1269.5,59.4c0,0-0.2-0.1-0.6-0.3c-0.4-0.2-0.9-0.5-1.4-0.9c-1.4-1-2.6-2.1-3.8-3.2c-1.2-1.2-2.3-2.5-3.3-3.8
			c-0.4-0.6-0.7-1-0.9-1.4s-0.3-0.6-0.3-0.6s0.2,0.1,0.6,0.3s0.9,0.5,1.4,0.9c1.4,1,2.6,2.1,3.8,3.2c1.2,1.2,2.3,2.5,3.3,3.8
			c0.4,0.6,0.7,1,0.9,1.4C1269.4,59.2,1269.5,59.4,1269.5,59.4z"/>
		<path class="st3" d="M1234.5,54.3c0,0-0.3,0.1-0.9,0.2c-0.6,0.1-1.4,0.2-2.4,0.3c-1,0.1-2.2,0.2-3.4,0.3s-2.6,0.1-3.9,0.1
			c-0.7,0-1.3,0-2,0s-1.3-0.1-1.9-0.1c-1.3-0.1-2.4-0.2-3.4-0.3s-1.8-0.3-2.4-0.3s-0.9-0.2-0.9-0.2s0.3-0.1,0.9-0.2
			c0.6-0.1,1.4-0.2,2.4-0.3s2.2-0.2,3.4-0.3c0.6,0,1.3-0.1,1.9-0.1s1.3,0,2,0c1.3,0,2.7,0,3.9,0.1s2.4,0.2,3.4,0.3s1.8,0.2,2.4,0.3
			C1234.2,54.2,1234.5,54.3,1234.5,54.3z"/>
		<path class="st3" d="M1218.6,59.4c0,0,0.1-0.2,0.3-0.6c0.2-0.3,0.5-0.8,0.9-1.4c1-1.4,2.1-2.6,3.3-3.8c1.2-1.2,2.5-2.3,3.8-3.2
			c0.6-0.4,1.1-0.7,1.4-0.9s0.6-0.3,0.6-0.3s-0.1,0.2-0.3,0.6c-0.2,0.3-0.5,0.8-0.9,1.4c-1,1.4-2.1,2.6-3.3,3.8
			c-1.2,1.2-2.5,2.3-3.8,3.2c-0.6,0.4-1.1,0.7-1.4,0.9C1218.9,59.3,1218.6,59.4,1218.6,59.4z"/>
		<path class="st3" d="M1228.9,59.4c0,0-0.2-0.1-0.6-0.3c-0.4-0.2-0.9-0.5-1.4-0.9c-1.4-1-2.6-2.1-3.8-3.2c-1.2-1.2-2.3-2.5-3.3-3.8
			c-0.4-0.6-0.7-1-0.9-1.4s-0.3-0.6-0.3-0.6s0.2,0.1,0.6,0.3c0.4,0.2,0.9,0.5,1.4,0.9c1.4,1,2.6,2.1,3.8,3.2
			c1.2,1.2,2.3,2.5,3.3,3.8c0.4,0.6,0.7,1,0.9,1.4C1228.8,59.2,1228.9,59.4,1228.9,59.4z"/>
		<path class="st3" d="M1230.1,23.3l0.3,0.3"/>
		<path class="st3" d="M1226.4,23.5c0,2.2,1.8,3.9,3.9,3.9s3.9-1.8,3.9-3.9c0-2.2-1.8-3.9-3.9-3.9
			C1228.2,19.7,1226.4,21.4,1226.4,23.5z"/>
		<path class="st3" d="M1259.6,23.3l0.3,0.3"/>
		<path class="st3" d="M1255.9,23.5c0,2.2,1.8,3.9,3.9,3.9s3.9-1.8,3.9-3.9c0-2.2-1.8-3.9-3.9-3.9
			C1257.7,19.7,1256,21.4,1255.9,23.5z"/>
		<path class="st2" d="M1169.7,54.5c-0.3-2.6,0.1-5.3,1.3-7.7c1.8-4.5,4.7-8.5,8.4-11.7c3.8-3.1,8.5-4.9,13.4-5.1
			c1.7-0.1,3.3,0.2,4.8,0.9c1.5,0.7,2.6,2.2,2.8,3.9c0.2,2.9-2.7,5.1-5.4,6.3C1187.7,44.5,1176.7,43.3,1169.7,54.5"/>
		<path class="st2" d="M1164.5,56.1c0.3-2.6-0.1-5.3-1.3-7.7c-1.8-4.5-4.7-8.5-8.4-11.7c-3.7-3.1-8.4-4.9-13.3-5.1
			c-1.7-0.1-3.3,0.2-4.8,0.9c-1.5,0.7-2.6,2.2-2.8,3.8c-0.2,2.9,2.7,5.1,5.4,6.3C1146.5,46,1157.5,44.9,1164.5,56.1"/>
		<path class="st2" d="M1167.3,51.2c-2.4-5.6-3.9-11.6-4.6-17.7c-0.5-4.4-0.5-9,1.3-12.9c1.3-2.7,4.1-5.3,7-4.4
			c1.7,0.6,3,2.1,3.3,3.9c0.3,1.7,0.3,3.6-0.1,5.3C1172.6,33.6,1168.3,42.7,1167.3,51.2"/>
		<path class="st3" d="M1197.4,54.3c0,0-0.3,0.1-0.9,0.2c-0.6,0.1-1.4,0.2-2.4,0.3s-2.2,0.2-3.4,0.3c-1.3,0.1-2.6,0.1-3.9,0.1
			c-0.7,0-1.3,0-2,0c-0.7,0-1.3-0.1-1.9-0.1c-1.3-0.1-2.4-0.2-3.4-0.3s-1.8-0.3-2.4-0.3c-0.6-0.1-0.9-0.2-0.9-0.2s0.3-0.1,0.9-0.2
			c0.6-0.1,1.4-0.2,2.4-0.3c1-0.1,2.2-0.2,3.4-0.3c0.6,0,1.3-0.1,1.9-0.1c0.7,0,1.3,0,2,0c1.3,0,2.7,0,3.9,0.1
			c1.3,0.1,2.4,0.2,3.4,0.3s1.8,0.2,2.4,0.3S1197.4,54.3,1197.4,54.3z"/>
		<path class="st3" d="M1181.5,59.4c0,0,0.1-0.2,0.3-0.6s0.5-0.8,0.9-1.4c1-1.4,2.1-2.6,3.3-3.8c1.2-1.2,2.5-2.3,3.8-3.2
			c0.6-0.4,1.1-0.7,1.4-0.9c0.4-0.2,0.6-0.3,0.6-0.3s-0.1,0.2-0.3,0.6s-0.5,0.8-0.9,1.4c-1,1.4-2.1,2.6-3.3,3.8
			c-1.2,1.2-2.5,2.3-3.8,3.2c-0.6,0.4-1.1,0.7-1.4,0.9S1181.5,59.4,1181.5,59.4z"/>
		<path class="st3" d="M1191.8,59.4c0,0-0.2-0.1-0.6-0.3s-0.9-0.5-1.4-0.9c-1.4-1-2.6-2.1-3.8-3.2c-1.2-1.2-2.3-2.5-3.3-3.8
			c-0.4-0.6-0.7-1-0.9-1.4s-0.3-0.6-0.3-0.6s0.2,0.1,0.6,0.3c0.4,0.2,0.9,0.5,1.4,0.9c1.4,1,2.6,2.1,3.8,3.2
			c1.2,1.2,2.3,2.5,3.3,3.8c0.4,0.6,0.7,1,0.9,1.4S1191.8,59.4,1191.8,59.4z"/>
		<path class="st3" d="M1156.8,54.3c0,0-0.3,0.1-0.9,0.2c-0.6,0.1-1.4,0.2-2.4,0.3c-1,0.1-2.2,0.2-3.4,0.3c-1.3,0.1-2.6,0.1-3.9,0.1
			c-0.7,0-1.3,0-2,0s-1.3-0.1-1.9-0.1c-1.3-0.1-2.4-0.2-3.4-0.3s-1.8-0.3-2.4-0.3s-0.9-0.2-0.9-0.2s0.3-0.1,0.9-0.2
			c0.6-0.1,1.4-0.2,2.4-0.3s2.2-0.2,3.4-0.3c0.6,0,1.3-0.1,1.9-0.1s1.3,0,2,0c1.3,0,2.7,0,3.9,0.1c1.3,0.1,2.4,0.2,3.4,0.3
			s1.8,0.2,2.4,0.3C1156.5,54.2,1156.8,54.3,1156.8,54.3z"/>
		<path class="st3" d="M1140.9,59.4c0,0,0.1-0.2,0.3-0.6c0.2-0.3,0.5-0.8,0.9-1.4c1-1.4,2.1-2.6,3.3-3.8c1.2-1.2,2.5-2.3,3.8-3.2
			c0.6-0.4,1.1-0.7,1.4-0.9s0.6-0.3,0.6-0.3s-0.1,0.2-0.3,0.6c-0.2,0.3-0.5,0.8-0.9,1.4c-1,1.4-2.1,2.6-3.3,3.8
			c-1.2,1.2-2.5,2.3-3.8,3.2c-0.6,0.4-1.1,0.7-1.4,0.9C1141.2,59.3,1140.9,59.4,1140.9,59.4z"/>
		<path class="st3" d="M1151.2,59.4c0,0-0.2-0.1-0.6-0.3c-0.4-0.2-0.9-0.5-1.4-0.9c-1.4-1-2.6-2.1-3.8-3.2c-1.2-1.2-2.3-2.5-3.3-3.8
			c-0.4-0.6-0.7-1-0.9-1.4s-0.3-0.6-0.3-0.6s0.2,0.1,0.6,0.3c0.4,0.2,0.9,0.5,1.4,0.9c1.4,1,2.6,2.1,3.8,3.2
			c1.2,1.2,2.3,2.5,3.3,3.8c0.4,0.6,0.7,1,0.9,1.4C1151.1,59.2,1151.2,59.4,1151.2,59.4z"/>
		<path class="st3" d="M1152.3,23.3l0.3,0.3"/>
		<path class="st3" d="M1148.6,23.5c0,2.2,1.8,3.9,3.9,3.9c2.2,0,3.9-1.8,3.9-3.9c0-2.2-1.8-3.9-3.9-3.9
			C1150.4,19.7,1148.7,21.4,1148.6,23.5z"/>
		<path class="st3" d="M1181.9,23.3l0.3,0.3"/>
		<path class="st3" d="M1178.2,23.5c0,2.2,1.8,3.9,3.9,3.9c2.2,0,3.9-1.8,3.9-3.9c0-2.2-1.8-3.9-3.9-3.9
			C1180,19.7,1178.2,21.4,1178.2,23.5z"/>
		<path class="st2" d="M1092,54.5c-0.3-2.6,0.1-5.3,1.3-7.7c1.8-4.5,4.7-8.5,8.4-11.7c3.7-3.1,8.4-4.9,13.3-5.1
			c1.7-0.1,3.3,0.2,4.8,0.9c1.5,0.7,2.6,2.2,2.8,3.9c0.2,2.9-2.7,5.1-5.4,6.3C1110,44.5,1099,43.3,1092,54.5"/>
		<path class="st2" d="M1086.8,56.1c0.3-2.6-0.1-5.3-1.3-7.7c-1.8-4.5-4.7-8.5-8.4-11.7c-3.7-3.1-8.4-4.9-13.3-5.1
			c-1.7-0.1-3.3,0.2-4.8,0.9c-1.5,0.7-2.6,2.2-2.8,3.8c-0.2,2.9,2.7,5.1,5.4,6.3C1068.8,46,1079.8,44.9,1086.8,56.1"/>
		<path class="st2" d="M1089.6,51.2c-2.3-5.6-3.9-11.6-4.6-17.7c-0.5-4.4-0.5-9,1.3-12.9c1.3-2.7,4.1-5.3,7-4.4
			c1.7,0.6,3,2.1,3.3,3.9c0.3,1.7,0.3,3.6-0.1,5.3C1094.9,33.7,1090.6,42.7,1089.6,51.2"/>
		<path class="st3" d="M1119.7,54.3c0,0-0.3,0.1-0.9,0.2c-0.6,0.1-1.4,0.2-2.4,0.3c-1,0.1-2.2,0.2-3.4,0.3s-2.6,0.1-3.9,0.1
			c-0.7,0-1.3,0-2,0s-1.3-0.1-1.9-0.1c-1.3-0.1-2.4-0.2-3.4-0.3s-1.8-0.3-2.4-0.3s-0.9-0.2-0.9-0.2s0.3-0.1,0.9-0.2
			c0.6-0.1,1.4-0.2,2.4-0.3s2.2-0.2,3.4-0.3c0.6,0,1.3-0.1,1.9-0.1s1.3,0,2,0c1.3,0,2.7,0,3.9,0.1s2.4,0.2,3.4,0.3s1.8,0.2,2.4,0.3
			C1119.3,54.2,1119.7,54.3,1119.7,54.3z"/>
		<path class="st3" d="M1103.8,59.4c0,0,0.1-0.2,0.3-0.6c0.2-0.3,0.5-0.8,0.9-1.4c1-1.4,2.1-2.6,3.3-3.8c1.2-1.2,2.5-2.3,3.8-3.2
			c0.6-0.4,1.1-0.7,1.4-0.9c0.4-0.2,0.6-0.3,0.6-0.3s-0.1,0.2-0.3,0.6c-0.2,0.3-0.5,0.8-0.9,1.4c-1,1.4-2.1,2.6-3.3,3.8
			c-1.2,1.2-2.5,2.3-3.8,3.2c-0.6,0.4-1.1,0.7-1.4,0.9C1104,59.3,1103.8,59.4,1103.8,59.4z"/>
		<path class="st3" d="M1114.1,59.4c0,0-0.2-0.1-0.6-0.3s-0.9-0.5-1.4-0.9c-1.4-1-2.6-2.1-3.8-3.2c-1.2-1.2-2.3-2.5-3.3-3.8
			c-0.4-0.6-0.7-1-0.9-1.4s-0.3-0.6-0.3-0.6s0.2,0.1,0.6,0.3c0.4,0.2,0.9,0.5,1.4,0.9c1.4,1,2.6,2.1,3.8,3.2
			c1.2,1.2,2.3,2.5,3.3,3.8c0.4,0.6,0.7,1,0.9,1.4S1114.1,59.4,1114.1,59.4z"/>
		<path class="st3" d="M1079.1,54.3c0,0-0.3,0.1-0.9,0.2c-0.6,0.1-1.4,0.2-2.4,0.3c-1,0.1-2.2,0.2-3.4,0.3c-1.3,0.1-2.6,0.1-3.9,0.1
			c-0.7,0-1.3,0-2,0c-0.7,0-1.3-0.1-1.9-0.1c-1.3-0.1-2.4-0.2-3.4-0.3s-1.8-0.3-2.4-0.3s-0.9-0.2-0.9-0.2s0.3-0.1,0.9-0.2
			c0.6-0.1,1.4-0.2,2.4-0.3c1-0.1,2.2-0.2,3.4-0.3c0.6,0,1.3-0.1,1.9-0.1c0.7,0,1.3,0,2,0c1.3,0,2.7,0,3.9,0.1
			c1.3,0.1,2.4,0.2,3.4,0.3s1.8,0.2,2.4,0.3S1079.1,54.3,1079.1,54.3z"/>
		<path class="st3" d="M1063.2,59.4c0,0,0.1-0.2,0.3-0.6s0.5-0.8,0.9-1.4c1-1.4,2.1-2.6,3.3-3.8c1.2-1.2,2.5-2.3,3.8-3.2
			c0.6-0.4,1.1-0.7,1.4-0.9c0.4-0.2,0.6-0.3,0.6-0.3s-0.1,0.2-0.3,0.6s-0.5,0.8-0.9,1.4c-1,1.4-2.1,2.6-3.3,3.8
			c-1.2,1.2-2.5,2.3-3.8,3.2c-0.6,0.4-1.1,0.7-1.4,0.9C1063.4,59.3,1063.2,59.4,1063.2,59.4z"/>
		<path class="st3" d="M1073.5,59.4c0,0-0.2-0.1-0.6-0.3c-0.4-0.2-0.9-0.5-1.4-0.9c-1.4-1-2.6-2.1-3.8-3.2c-1.2-1.2-2.3-2.5-3.3-3.8
			c-0.4-0.6-0.7-1-0.9-1.4c-0.2-0.4-0.3-0.6-0.3-0.6s0.2,0.1,0.6,0.3c0.4,0.2,0.9,0.5,1.4,0.9c1.4,1,2.6,2.1,3.8,3.2
			c1.2,1.2,2.3,2.5,3.3,3.8c0.4,0.6,0.7,1,0.9,1.4C1073.4,59.2,1073.5,59.4,1073.5,59.4z"/>
		<path class="st3" d="M1074.6,23.3l0.3,0.3"/>
		<path class="st3" d="M1071,23.5c0,2.2,1.8,3.9,3.9,3.9c2.2,0,3.9-1.8,3.9-3.9c0-2.2-1.8-3.9-3.9-3.9
			C1072.7,19.7,1071,21.4,1071,23.5z"/>
		<path class="st3" d="M1104.2,23.3l0.3,0.3"/>
		<path class="st3" d="M1100.5,23.5c0,2.2,1.8,3.9,3.9,3.9c2.2,0,3.9-1.8,3.9-3.9c0-2.2-1.8-3.9-3.9-3.9
			C1102.3,19.7,1100.5,21.4,1100.5,23.5z"/>
		<path class="st2" d="M1014.3,54.5c-0.3-2.6,0.1-5.3,1.3-7.7c1.8-4.5,4.7-8.5,8.4-11.7c3.7-3.1,8.4-4.9,13.3-5.1
			c1.7-0.1,3.3,0.2,4.8,0.9c1.5,0.7,2.6,2.2,2.8,3.9c0.2,2.9-2.7,5.1-5.4,6.3C1032.3,44.5,1021.3,43.3,1014.3,54.5"/>
		<path class="st2" d="M1009.1,56.1c0.3-2.6-0.1-5.3-1.3-7.7c-1.8-4.5-4.7-8.5-8.4-11.7c-3.7-3.1-8.4-4.9-13.3-5.1
			c-1.7-0.1-3.3,0.2-4.8,0.9c-1.5,0.7-2.6,2.2-2.8,3.8c-0.2,2.9,2.7,5.1,5.4,6.3C991.1,46,1002.1,44.8,1009.1,56.1"/>
		<path class="st2" d="M1011.9,51.2c-2.3-5.6-3.9-11.6-4.6-17.7c-0.5-4.4-0.5-9,1.3-12.9c1.3-2.7,4.1-5.3,7-4.4
			c1.7,0.6,3,2.1,3.3,3.9c0.3,1.7,0.3,3.6-0.1,5.3C1017.2,33.7,1012.9,42.7,1011.9,51.2"/>
		<path class="st3" d="M1042,54.3c0,0-0.3,0.1-0.9,0.2c-0.6,0.1-1.4,0.2-2.4,0.3c-1,0.1-2.2,0.2-3.4,0.3c-1.3,0.1-2.6,0.1-3.9,0.1
			c-0.7,0-1.3,0-2,0c-0.7,0-1.3-0.1-1.9-0.1c-1.3-0.1-2.4-0.2-3.4-0.3c-1-0.1-1.8-0.3-2.4-0.3c-0.6-0.1-0.9-0.2-0.9-0.2
			s0.3-0.1,0.9-0.2s1.4-0.2,2.4-0.3c1-0.1,2.2-0.2,3.4-0.3c0.6,0,1.3-0.1,1.9-0.1c0.7,0,1.3,0,2,0c1.3,0,2.7,0,3.9,0.1
			c1.3,0.1,2.4,0.2,3.4,0.3s1.8,0.2,2.4,0.3C1041.6,54.2,1042,54.3,1042,54.3z"/>
		<path class="st3" d="M1026.1,59.4c0,0,0.1-0.2,0.3-0.6s0.5-0.8,0.9-1.4c1-1.4,2.1-2.6,3.3-3.8c1.2-1.2,2.5-2.3,3.8-3.2
			c0.6-0.4,1.1-0.7,1.4-0.9c0.4-0.2,0.6-0.3,0.6-0.3s-0.1,0.2-0.3,0.6s-0.5,0.8-0.9,1.4c-1,1.4-2.1,2.6-3.3,3.8
			c-1.2,1.2-2.5,2.3-3.8,3.2c-0.6,0.4-1.1,0.7-1.4,0.9C1026.3,59.3,1026.1,59.4,1026.1,59.4z"/>
		<path class="st3" d="M1036.4,59.4c0,0-0.2-0.1-0.6-0.3c-0.4-0.2-0.9-0.5-1.4-0.9c-1.4-1-2.6-2.1-3.8-3.2c-1.2-1.2-2.3-2.5-3.3-3.8
			c-0.4-0.6-0.7-1-0.9-1.4s-0.3-0.6-0.3-0.6s0.2,0.1,0.6,0.3s0.9,0.5,1.4,0.9c1.4,1,2.6,2.1,3.8,3.2c1.2,1.2,2.3,2.5,3.3,3.8
			c0.4,0.6,0.7,1,0.9,1.4C1036.3,59.2,1036.4,59.4,1036.4,59.4z"/>
		<path class="st3" d="M1001.4,54.3c0,0-0.3,0.1-0.9,0.2s-1.4,0.2-2.4,0.3c-1,0.1-2.2,0.2-3.4,0.3s-2.6,0.1-3.9,0.1
			c-0.7,0-1.3,0-2,0s-1.3-0.1-1.9-0.1c-1.3-0.1-2.4-0.2-3.4-0.3s-1.8-0.3-2.4-0.3c-0.6-0.1-0.9-0.2-0.9-0.2s0.3-0.1,0.9-0.2
			s1.4-0.2,2.4-0.3s2.2-0.2,3.4-0.3c0.6,0,1.3-0.1,1.9-0.1s1.3,0,2,0c1.3,0,2.7,0,3.9,0.1s2.4,0.2,3.4,0.3s1.8,0.2,2.4,0.3
			S1001.4,54.3,1001.4,54.3z"/>
		<path class="st3" d="M985.5,59.4c0,0,0.1-0.2,0.3-0.6c0.2-0.3,0.5-0.8,0.9-1.4c1-1.4,2.1-2.6,3.3-3.8c1.2-1.2,2.5-2.3,3.8-3.2
			c0.6-0.4,1.1-0.7,1.4-0.9c0.4-0.2,0.6-0.3,0.6-0.3s-0.1,0.2-0.3,0.6c-0.2,0.3-0.5,0.8-0.9,1.4c-1,1.4-2.1,2.6-3.3,3.8
			c-1.2,1.2-2.5,2.3-3.8,3.2c-0.6,0.4-1.1,0.7-1.4,0.9C985.7,59.3,985.5,59.4,985.5,59.4z"/>
		<path class="st3" d="M995.8,59.4c0,0-0.2-0.1-0.6-0.3s-0.9-0.5-1.4-0.9c-1.4-1-2.6-2.1-3.8-3.2c-1.2-1.2-2.3-2.5-3.3-3.8
			c-0.4-0.6-0.7-1-0.9-1.4s-0.3-0.6-0.3-0.6s0.2,0.1,0.6,0.3c0.4,0.2,0.9,0.5,1.4,0.9c1.4,1,2.6,2.1,3.8,3.2
			c1.2,1.2,2.3,2.5,3.3,3.8c0.4,0.6,0.7,1,0.9,1.4C995.7,59.2,995.8,59.4,995.8,59.4z"/>
		<path class="st3" d="M996.9,23.3l0.3,0.3"/>
		<path class="st3" d="M993.2,23.5c0,2.2,1.8,3.9,3.9,3.9c2.2,0,3.9-1.8,3.9-3.9s-1.8-3.9-3.9-3.9l0,0
			C995,19.7,993.3,21.4,993.2,23.5z"/>
		<path class="st3" d="M1026.4,23.3l0.3,0.3"/>
		<path class="st3" d="M1022.8,23.5c0,2.2,1.8,3.9,3.9,3.9s3.9-1.8,3.9-3.9s-1.8-3.9-3.9-3.9l0,0
			C1024.6,19.7,1022.8,21.4,1022.8,23.5z"/>
	</g>
</g>
</svg>
