<?xml version="1.0" encoding="UTF-8"?><svg xmlns="http://www.w3.org/2000/svg" viewBox="0 0 364.77 66.06"><defs><style>.d{fill:#fff;}.e{fill:#3d335c;}</style></defs><g id="a"/><g id="b"><g id="c"><rect class="e" width="364.77" height="66.06" rx="20.03" ry="20.03"/><g><path class="d" d="M128.79,20.72h1.62c.21,0,.31,.1,.31,.31v21.18c0,.21-.1,.31-.31,.31h-1.59c-.21,0-.31-.1-.31-.31V25.51c0-.06-.02-.09-.05-.09s-.07,.02-.11,.06l-3.24,6.73c-.06,.14-.17,.22-.31,.22-.17,0-.28-.07-.34-.22l-3.24-6.7s-.08-.06-.11-.06-.05,.03-.05,.09v16.66c0,.21-.1,.31-.31,.31h-1.59c-.21,0-.31-.1-.31-.31V21.03c0-.21,.1-.31,.31-.31h1.62c.19,0,.31,.07,.37,.22l3.55,7.2s.05,.06,.09,.06,.07-.02,.09-.06l3.52-7.2c.06-.15,.19-.22,.37-.22Z"/><path class="d" d="M134.88,23.4c-.32-.33-.48-.75-.48-1.25s.16-.94,.48-1.26c.32-.32,.74-.48,1.26-.48s.91,.16,1.23,.48,.48,.74,.48,1.26-.16,.91-.48,1.25-.73,.5-1.23,.5-.94-.17-1.26-.5Zm.17,18.81v-15.14c0-.21,.1-.31,.31-.31h1.59c.21,0,.31,.1,.31,.31v15.14c0,.21-.1,.31-.31,.31h-1.59c-.21,0-.31-.1-.31-.31Z"/><path class="d" d="M141.95,41.57c-.86-.74-1.29-1.72-1.29-2.94v-.22c0-.21,.1-.31,.31-.31h1.5c.21,0,.31,.1,.31,.31v.19c0,.67,.24,1.23,.73,1.68,.49,.46,1.13,.69,1.92,.69,.75,0,1.35-.23,1.81-.69,.46-.46,.69-1.04,.69-1.74,0-.54-.15-.99-.44-1.35s-.63-.65-1.01-.86c-.38-.21-.96-.48-1.73-.81-.81-.33-1.48-.66-2.01-.98s-.99-.78-1.37-1.37c-.38-.59-.58-1.34-.58-2.26,0-1.33,.41-2.38,1.23-3.15,.82-.77,1.93-1.15,3.32-1.15s2.53,.39,3.36,1.18c.83,.79,1.25,1.84,1.25,3.15v.09c0,.21-.1,.31-.31,.31h-1.43c-.21,0-.31-.1-.31-.31v-.19c0-.71-.23-1.29-.7-1.74-.47-.46-1.07-.69-1.82-.69s-1.34,.23-1.79,.7-.67,1.04-.67,1.73c0,.5,.13,.92,.41,1.26,.27,.34,.6,.62,1,.84,.39,.22,.94,.48,1.65,.79,.85,.38,1.55,.73,2.1,1.06s1.03,.8,1.45,1.4c.42,.6,.62,1.35,.62,2.24,0,1.29-.43,2.31-1.28,3.08-.85,.77-2,1.15-3.46,1.15s-2.58-.37-3.44-1.11Z"/><path class="d" d="M160.42,41.31c-.96-.98-1.45-2.29-1.45-3.93v-11.56c0-1.62,.48-2.92,1.45-3.89,.97-.98,2.25-1.46,3.85-1.46s2.91,.48,3.88,1.45,1.45,2.27,1.45,3.91v.53c0,.21-.1,.31-.31,.31l-1.62,.09c-.21,0-.31-.1-.31-.31v-.78c0-.98-.28-1.77-.84-2.37-.56-.6-1.31-.9-2.24-.9s-1.66,.3-2.23,.9c-.57,.6-.86,1.39-.86,2.37v11.9c0,.98,.29,1.77,.86,2.37,.57,.6,1.31,.9,2.23,.9s1.68-.3,2.24-.9c.56-.6,.84-1.39,.84-2.37v-.78c0-.21,.1-.31,.31-.31l1.62,.09c.21,0,.31,.1,.31,.31v.5c0,1.64-.49,2.95-1.46,3.93-.98,.98-2.26,1.46-3.86,1.46s-2.88-.49-3.85-1.46Z"/><path class="d" d="M180.56,26.76h1.59c.21,0,.31,.1,.31,.31v15.14c0,.21-.1,.31-.31,.31h-1.59c-.21,0-.31-.1-.31-.31v-1.06c0-.06-.02-.09-.05-.09s-.07,.02-.11,.06c-.64,1.08-1.68,1.62-3.11,1.62-1.25,0-2.24-.38-2.97-1.14-.74-.76-1.11-1.9-1.11-3.44v-11.09c0-.21,.1-.31,.31-.31h1.59c.21,0,.31,.1,.31,.31v10.59c0,1.04,.21,1.82,.64,2.35,.42,.53,1.04,.79,1.85,.79s1.48-.3,1.95-.9c.47-.6,.7-1.42,.7-2.46v-10.37c0-.21,.1-.31,.31-.31Z"/><path class="d" d="M194.95,27.83c.79,.88,1.18,2.03,1.18,3.44v6.73c0,1.46-.39,2.61-1.18,3.47-.79,.86-1.84,1.29-3.15,1.29-.58,0-1.13-.11-1.65-.33-.52-.22-.98-.55-1.37-1.01-.04-.04-.08-.05-.11-.03-.03,.02-.05,.05-.05,.09v6.76c0,.21-.1,.31-.31,.31h-1.59c-.21,0-.31-.11-.31-.31V27.07c0-.21,.1-.31,.31-.31h1.59c.21,0,.31,.1,.31,.31v.72s.02,.07,.06,.08c.04,.01,.08,0,.12-.05,.37-.44,.83-.76,1.36-.98,.53-.22,1.07-.33,1.63-.33,1.31,0,2.36,.44,3.15,1.32Zm-1.76,1.43c-.51-.55-1.16-.83-1.95-.83s-1.4,.28-1.88,.83c-.49,.55-.73,1.27-.73,2.16v6.42c0,.89,.24,1.61,.73,2.16,.49,.55,1.12,.83,1.88,.83s1.44-.28,1.95-.83c.51-.55,.76-1.27,.76-2.16v-6.42c0-.89-.25-1.61-.76-2.16Z"/><path class="d" d="M200.58,41.46c-.88-.87-1.32-2.03-1.32-3.46v-6.7c0-1.41,.45-2.56,1.34-3.46s2.08-1.34,3.55-1.34,2.69,.45,3.58,1.34c.89,.89,1.34,2.04,1.34,3.46v6.7c0,1.43-.45,2.59-1.34,3.46-.89,.87-2.09,1.31-3.58,1.31s-2.68-.44-3.57-1.31Zm5.51-1.46c.51-.54,.76-1.26,.76-2.15v-6.42c0-.89-.25-1.61-.76-2.16s-1.16-.83-1.95-.83-1.43,.28-1.93,.83-.75,1.27-.75,2.16v6.42c0,.89,.25,1.61,.75,2.15,.5,.54,1.14,.81,1.93,.81s1.44-.27,1.95-.81Z"/><path class="d" d="M221.07,27.85c.7,.87,1.04,2.09,1.04,3.64v10.71c0,.21-.1,.31-.31,.31h-1.59c-.21,0-.31-.1-.31-.31v-10.53c0-1.02-.22-1.81-.67-2.37s-1.06-.84-1.85-.84c-.83,0-1.48,.3-1.95,.9-.47,.6-.7,1.42-.7,2.46v10.37c0,.21-.1,.31-.31,.31h-1.59c-.21,0-.31-.1-.31-.31v-15.14c0-.21,.1-.31,.31-.31h1.59c.21,0,.31,.1,.31,.31v1s.02,.07,.06,.09c.04,.02,.07,0,.09-.06,.37-.52,.85-.91,1.42-1.17s1.18-.39,1.82-.39c1.27,0,2.25,.44,2.94,1.31Z"/><path class="d" d="M234.82,35.48h-7.1c-.08,0-.12,.04-.12,.12v2.27c0,.87,.24,1.58,.73,2.13,.49,.55,1.13,.83,1.92,.83,.66,0,1.23-.2,1.7-.61,.47-.41,.77-.93,.92-1.57,.06-.19,.18-.28,.34-.28l1.56,.06c.08,0,.16,.03,.22,.09s.08,.15,.06,.25c-.17,1.22-.67,2.2-1.51,2.91s-1.94,1.07-3.29,1.07c-1.47,0-2.65-.44-3.54-1.31-.88-.87-1.32-2.03-1.32-3.46v-6.73c0-1.41,.44-2.56,1.32-3.44s2.06-1.32,3.54-1.32,2.68,.44,3.57,1.32c.88,.88,1.32,2.03,1.32,3.44v3.89c0,.21-.1,.31-.31,.31Zm-6.49-6.21c-.49,.55-.73,1.27-.73,2.16v2.09c0,.08,.04,.12,.12,.12h5.11c.08,0,.12-.04,.12-.12v-2.09c0-.89-.25-1.61-.75-2.16-.5-.55-1.15-.83-1.96-.83s-1.43,.28-1.92,.83Z"/><path class="d" d="M239.01,41.57c-.86-.74-1.29-1.72-1.29-2.94v-.22c0-.21,.1-.31,.31-.31h1.5c.21,0,.31,.1,.31,.31v.19c0,.67,.24,1.23,.73,1.68,.49,.46,1.13,.69,1.92,.69,.75,0,1.35-.23,1.81-.69,.46-.46,.69-1.04,.69-1.74,0-.54-.15-.99-.44-1.35s-.63-.65-1.01-.86c-.38-.21-.96-.48-1.73-.81-.81-.33-1.48-.66-2.01-.98s-.99-.78-1.37-1.37c-.38-.59-.58-1.34-.58-2.26,0-1.33,.41-2.38,1.23-3.15,.82-.77,1.93-1.15,3.32-1.15s2.53,.39,3.36,1.18c.83,.79,1.25,1.84,1.25,3.15v.09c0,.21-.1,.31-.31,.31h-1.43c-.21,0-.31-.1-.31-.31v-.19c0-.71-.23-1.29-.7-1.74-.47-.46-1.07-.69-1.82-.69s-1.34,.23-1.79,.7-.67,1.04-.67,1.73c0,.5,.13,.92,.41,1.26,.27,.34,.6,.62,1,.84,.39,.22,.94,.48,1.65,.79,.85,.38,1.55,.73,2.1,1.06s1.03,.8,1.45,1.4c.42,.6,.62,1.35,.62,2.24,0,1.29-.43,2.31-1.28,3.08-.85,.77-2,1.15-3.46,1.15s-2.58-.37-3.44-1.11Z"/></g><g><path class="d" d="M301.75,37.14h6.55c.41,0,.75-.34,.75-.75s-.34-.75-.75-.75h-6.55c-.41,0-.75,.34-.75,.75s.34,.75,.75,.75Z"/><path class="d" d="M311.42,38.71h-12.78c-.41,0-.75,.34-.75,.75s.34,.75,.75,.75h12.78c.41,0,.75-.34,.75-.75s-.34-.75-.75-.75Z"/><path class="d" d="M311.42,41.85h-12.78c-.41,0-.75,.34-.75,.75s.34,.75,.75,.75h12.78c.41,0,.75-.34,.75-.75s-.34-.75-.75-.75Z"/><path class="d" d="M316,14.51c-.28-.11-.61-.04-.81,.19l-1.59,1.74-1.59-1.73c-.28-.31-.75-.32-1.05-.04l-.04,.04-1.59,1.73-1.59-1.74c-.28-.31-.76-.32-1.05-.04l-.04,.04-1.59,1.73-1.59-1.73c-.28-.31-.76-.32-1.05-.04l-.04,.04-1.59,1.73-1.59-1.73c-.28-.31-.76-.32-1.05-.04l-.04,.04-1.59,1.73-1.6-1.73c-.2-.22-.52-.31-.81-.19-.28,.11-.47,.39-.46,.7V49.5c0,.4,.31,.74,.72,.75,.22,0,.42-.08,.56-.24l1.59-1.74,1.59,1.73c.28,.31,.75,.32,1.05,.04l.04-.04,1.59-1.73,1.59,1.73c.28,.31,.76,.32,1.05,.04l.04-.04,1.59-1.73,1.59,1.73c.28,.31,.76,.32,1.05,.04l.04-.04,1.59-1.73,1.59,1.73c.28,.31,.76,.32,1.05,.04l.04-.04,1.59-1.73,1.59,1.73c.14,.16,.34,.24,.55,.24,.09,0,.17-.02,.25-.05,.28-.11,.47-.39,.46-.7V15.19c.01-.3-.17-.58-.46-.69Zm-1.03,33.07l-.83-.92c-.13-.16-.33-.25-.54-.25h0c-.21,0-.41,.09-.55,.25l-1.59,1.74-1.59-1.73c-.28-.31-.76-.32-1.05-.04l-.04,.04-1.59,1.73-1.59-1.73c-.28-.31-.76-.32-1.05-.04l-.04,.04-1.59,1.73-1.59-1.73c-.28-.31-.76-.32-1.05-.04l-.04,.04-1.6,1.73-1.59-1.74c-.14-.16-.34-.25-.55-.25h0c-.21,0-.4,.09-.54,.25l-.83,.93V17.12l.83,.92c.13,.16,.33,.25,.54,.25h0c.21,0,.41-.09,.55-.25l1.59-1.74,1.59,1.73c.28,.31,.76,.32,1.05,.04l.04-.04,1.59-1.73,1.59,1.73c.28,.31,.76,.32,1.05,.04l.04-.04,1.59-1.73,1.59,1.73c.28,.31,.76,.32,1.05,.04l.04-.04,1.59-1.73,1.59,1.74c.14,.16,.34,.25,.55,.25h0c.21,0,.4-.09,.54-.25l.84-.93v30.46h0Z"/><path class="d" d="M305.03,28.94c-.52,0-.94-.42-.94-.94,0-.41-.34-.75-.75-.75s-.75,.34-.75,.75c0,1.05,.68,1.99,1.69,2.32v.48c0,.41,.34,.75,.75,.75s.75-.34,.75-.75v-.48c1.28-.41,1.98-1.79,1.57-3.07-.32-1.01-1.26-1.69-2.32-1.69-.52,0-.94-.42-.94-.94s.42-.93,.93-.94c.52,0,.94,.42,.94,.94h0c0,.42,.34,.76,.75,.76s.75-.34,.75-.75c0-1.05-.68-2-1.69-2.32v-.47c0-.41-.34-.75-.75-.75s-.75,.34-.75,.75v.47c-1.28,.41-1.98,1.79-1.57,3.07,.32,1,1.26,1.69,2.32,1.69,.52,0,.94,.41,.95,.93,0,.52-.41,.94-.93,.95t0,0Z"/></g></g></g></svg>