<?xml version="1.0" encoding="UTF-8"?><svg xmlns="http://www.w3.org/2000/svg" viewBox="0 0 364.77 66.06"><defs><style>.d{fill:#fff;}.e{fill:#6b2788;}</style></defs><g id="a"/><g id="b"><g id="c"><rect class="e" width="364.77" height="66.06" rx="20.03" ry="20.03"/><g><path class="d" d="M127.92,20.72h1.62c.21,0,.31,.1,.31,.31v21.18c0,.21-.1,.31-.31,.31h-1.59c-.21,0-.31-.1-.31-.31V25.51c0-.06-.02-.09-.05-.09s-.07,.02-.11,.06l-3.24,6.73c-.06,.14-.17,.22-.31,.22-.17,0-.28-.07-.34-.22l-3.24-6.7s-.08-.06-.11-.06-.05,.03-.05,.09v16.66c0,.21-.1,.31-.31,.31h-1.59c-.21,0-.31-.1-.31-.31V21.03c0-.21,.1-.31,.31-.31h1.62c.19,0,.31,.07,.37,.22l3.55,7.2s.05,.06,.09,.06,.07-.02,.09-.06l3.52-7.2c.06-.15,.19-.22,.37-.22Z"/><path class="d" d="M134.01,23.4c-.32-.33-.48-.75-.48-1.25s.16-.94,.48-1.26c.32-.32,.74-.48,1.26-.48s.91,.16,1.23,.48,.48,.74,.48,1.26-.16,.91-.48,1.25-.73,.5-1.23,.5-.94-.17-1.26-.5Zm.17,18.81v-15.14c0-.21,.1-.31,.31-.31h1.59c.21,0,.31,.1,.31,.31v15.14c0,.21-.1,.31-.31,.31h-1.59c-.21,0-.31-.1-.31-.31Z"/><path class="d" d="M141.08,41.57c-.86-.74-1.29-1.72-1.29-2.94v-.22c0-.21,.1-.31,.31-.31h1.5c.21,0,.31,.1,.31,.31v.19c0,.67,.24,1.23,.73,1.68,.49,.46,1.13,.69,1.92,.69,.75,0,1.35-.23,1.81-.69,.46-.46,.69-1.04,.69-1.74,0-.54-.15-.99-.44-1.35s-.63-.65-1.01-.86c-.38-.21-.96-.48-1.73-.81-.81-.33-1.48-.66-2.01-.98s-.99-.78-1.37-1.37c-.38-.59-.58-1.34-.58-2.26,0-1.33,.41-2.38,1.23-3.15,.82-.77,1.93-1.15,3.32-1.15s2.53,.39,3.36,1.18c.83,.79,1.25,1.84,1.25,3.15v.09c0,.21-.1,.31-.31,.31h-1.43c-.21,0-.31-.1-.31-.31v-.19c0-.71-.23-1.29-.7-1.74-.47-.46-1.07-.69-1.82-.69s-1.34,.23-1.79,.7-.67,1.04-.67,1.73c0,.5,.13,.92,.41,1.26,.27,.34,.6,.62,1,.84,.39,.22,.94,.48,1.65,.79,.85,.38,1.55,.73,2.1,1.06s1.03,.8,1.45,1.4c.42,.6,.62,1.35,.62,2.24,0,1.29-.43,2.31-1.28,3.08-.85,.77-2,1.15-3.46,1.15s-2.58-.37-3.44-1.11Z"/><path class="d" d="M168.13,22.65h-7.16c-.08,0-.12,.04-.12,.12v7.72c0,.08,.04,.12,.12,.12h4.52c.21,0,.31,.1,.31,.31v1.34c0,.21-.1,.31-.31,.31h-4.52c-.08,0-.12,.04-.12,.12v9.5c0,.21-.1,.31-.31,.31h-1.59c-.21,0-.31-.1-.31-.31V21.03c0-.21,.1-.31,.31-.31h9.19c.21,0,.31,.1,.31,.31v1.31c0,.21-.1,.31-.31,.31Z"/><path class="d" d="M178.6,27.93c.87,.95,1.31,2.21,1.31,3.79v10.5c0,.21-.1,.31-.31,.31h-1.59c-.21,0-.31-.1-.31-.31v-.93s-.02-.07-.05-.08-.07,0-.11,.05c-.77,1.02-1.92,1.53-3.46,1.53-1.14,0-2.13-.33-2.97-.98-.84-.65-1.26-1.81-1.26-3.47,0-1.77,.51-3.06,1.53-3.88,1.02-.82,2.36-1.23,4.02-1.23h2.18c.08,0,.12-.04,.12-.12v-1.21c0-1.04-.24-1.87-.72-2.49s-1.12-.94-1.93-.94c-.62,0-1.16,.21-1.6,.62-.45,.42-.71,.95-.79,1.59,0,.21-.1,.31-.31,.31l-1.75-.03c-.1,0-.18-.03-.23-.09s-.07-.13-.05-.22c.1-1.23,.6-2.22,1.5-2.98,.89-.76,1.99-1.14,3.3-1.14,1.45,0,2.62,.47,3.49,1.42Zm-1.84,12.09c.62-.55,.93-1.31,.93-2.29v-2.62c0-.08-.04-.12-.12-.12h-2.21c-1,0-1.79,.27-2.37,.79s-.87,1.31-.87,2.35c0,.91,.22,1.59,.67,2.04,.45,.45,1.03,.67,1.76,.67,.85,0,1.59-.28,2.21-.83Z"/><path class="d" d="M184.35,41.46c-.88-.87-1.32-2.03-1.32-3.46v-6.73c0-1.41,.45-2.56,1.34-3.44s2.07-1.32,3.52-1.32c.98,0,1.84,.2,2.58,.59,.75,.39,1.32,.92,1.73,1.57,.41,.65,.61,1.38,.61,2.16v.31c0,.21-.1,.31-.31,.31l-1.59,.06c-.21,0-.31-.1-.31-.31v-.22c0-.69-.25-1.28-.76-1.79s-1.16-.76-1.95-.76-1.43,.28-1.92,.83c-.49,.55-.73,1.27-.73,2.16v6.42c0,.89,.24,1.61,.73,2.16,.49,.55,1.13,.83,1.92,.83s1.44-.26,1.95-.76c.51-.51,.76-1.11,.76-1.79v-.22c0-.21,.1-.31,.31-.31l1.59,.03c.21,0,.31,.1,.31,.31v.34c0,1.24-.45,2.28-1.35,3.1-.9,.82-2.09,1.23-3.57,1.23s-2.65-.44-3.54-1.31Z"/><path class="d" d="M201.03,28.41h-2.37c-.08,0-.12,.04-.12,.12v9.53c0,.96,.17,1.62,.5,1.98s.84,.54,1.53,.51h.31c.21,0,.31,.1,.31,.31v1.34c0,.21-.1,.31-.31,.31h-.78c-1.23,0-2.15-.27-2.79-.79-.63-.53-.95-1.53-.95-3.01v-10.19c0-.08-.04-.12-.12-.12h-1.21c-.21,0-.31-.1-.31-.31v-1.03c0-.21,.1-.31,.31-.31h1.21c.08,0,.12-.04,.12-.12v-3.49c0-.21,.1-.31,.31-.31h1.56c.21,0,.31,.11,.31,.31v3.49c0,.08,.04,.12,.12,.12h2.37c.21,0,.31,.1,.31,.31v1.03c0,.21-.1,.31-.31,.31Z"/><path class="d" d="M211.62,26.76h1.59c.21,0,.31,.1,.31,.31v15.14c0,.21-.1,.31-.31,.31h-1.59c-.21,0-.31-.1-.31-.31v-1.06c0-.06-.02-.09-.05-.09s-.07,.02-.11,.06c-.64,1.08-1.68,1.62-3.11,1.62-1.25,0-2.24-.38-2.97-1.14-.74-.76-1.11-1.9-1.11-3.44v-11.09c0-.21,.1-.31,.31-.31h1.59c.21,0,.31,.1,.31,.31v10.59c0,1.04,.21,1.82,.64,2.35,.42,.53,1.04,.79,1.85,.79s1.48-.3,1.95-.9c.47-.6,.7-1.42,.7-2.46v-10.37c0-.21,.1-.31,.31-.31Z"/><path class="d" d="M223.98,26.95c.14,.08,.2,.22,.16,.4l-.37,1.62c-.02,.19-.15,.25-.37,.19-.25-.12-.56-.19-.93-.19-.17,0-.29,.01-.37,.03-.75,.04-1.36,.43-1.84,1.17-.48,.74-.72,1.64-.72,2.7v9.34c0,.21-.1,.31-.31,.31h-1.59c-.21,0-.31-.1-.31-.31v-15.14c0-.21,.1-.31,.31-.31h1.59c.21,0,.31,.1,.31,.31v1.87c0,.06,.02,.09,.05,.09s.07-.02,.11-.06c.6-1.58,1.59-2.37,2.96-2.37,.52,0,.97,.12,1.34,.34Z"/><path class="d" d="M234.45,27.93c.87,.95,1.31,2.21,1.31,3.79v10.5c0,.21-.1,.31-.31,.31h-1.59c-.21,0-.31-.1-.31-.31v-.93s-.02-.07-.05-.08-.07,0-.11,.05c-.77,1.02-1.92,1.53-3.46,1.53-1.14,0-2.13-.33-2.97-.98-.84-.65-1.26-1.81-1.26-3.47,0-1.77,.51-3.06,1.53-3.88,1.02-.82,2.36-1.23,4.02-1.23h2.18c.08,0,.12-.04,.12-.12v-1.21c0-1.04-.24-1.87-.72-2.49s-1.12-.94-1.93-.94c-.62,0-1.16,.21-1.6,.62-.45,.42-.71,.95-.79,1.59,0,.21-.1,.31-.31,.31l-1.75-.03c-.1,0-.18-.03-.23-.09s-.07-.13-.05-.22c.1-1.23,.6-2.22,1.5-2.98,.89-.76,1.99-1.14,3.3-1.14,1.45,0,2.62,.47,3.49,1.42Zm-1.84,12.09c.62-.55,.93-1.31,.93-2.29v-2.62c0-.08-.04-.12-.12-.12h-2.21c-1,0-1.79,.27-2.37,.79s-.87,1.31-.87,2.35c0,.91,.22,1.59,.67,2.04,.45,.45,1.03,.67,1.76,.67,.85,0,1.59-.28,2.21-.83Z"/><path class="d" d="M239.88,41.57c-.86-.74-1.29-1.72-1.29-2.94v-.22c0-.21,.1-.31,.31-.31h1.5c.21,0,.31,.1,.31,.31v.19c0,.67,.24,1.23,.73,1.68,.49,.46,1.13,.69,1.92,.69,.75,0,1.35-.23,1.81-.69,.46-.46,.69-1.04,.69-1.74,0-.54-.15-.99-.44-1.35s-.63-.65-1.01-.86c-.38-.21-.96-.48-1.73-.81-.81-.33-1.48-.66-2.01-.98s-.99-.78-1.37-1.37c-.38-.59-.58-1.34-.58-2.26,0-1.33,.41-2.38,1.23-3.15,.82-.77,1.93-1.15,3.32-1.15s2.53,.39,3.36,1.18c.83,.79,1.25,1.84,1.25,3.15v.09c0,.21-.1,.31-.31,.31h-1.43c-.21,0-.31-.1-.31-.31v-.19c0-.71-.23-1.29-.7-1.74-.47-.46-1.07-.69-1.82-.69s-1.34,.23-1.79,.7-.67,1.04-.67,1.73c0,.5,.13,.92,.41,1.26,.27,.34,.6,.62,1,.84,.39,.22,.94,.48,1.65,.79,.85,.38,1.55,.73,2.1,1.06s1.03,.8,1.45,1.4c.42,.6,.62,1.35,.62,2.24,0,1.29-.43,2.31-1.28,3.08-.85,.77-2,1.15-3.46,1.15s-2.58-.37-3.44-1.11Z"/></g><g><path class="d" d="M311.79,25.52c-.16-.06-.31-.11-.47-.17v-2.7c.35,.1,.53,.27,.54,.29,.25,.28,.67,.31,.95,.06,.28-.25,.31-.67,.07-.96-.26-.29-.8-.67-1.56-.78v-.48c0-.37-.3-.68-.68-.68s-.68,.3-.68,.68v.56c-.07,.02-.14,.04-.21,.06-.88,.27-1.54,1.02-1.72,1.97-.16,.87,.12,1.71,.73,2.19,.31,.24,.69,.46,1.2,.7v3.44c-.42-.04-.71-.16-1.18-.47-.31-.2-.73-.12-.94,.2-.2,.31-.12,.73,.2,.94,.75,.49,1.27,.65,1.92,.69v.57c0,.37,.3,.68,.68,.68s.68-.3,.68-.68v-.63c1.29-.29,2.11-1.38,2.29-2.45,.23-1.37-.48-2.55-1.82-3.03h0Zm-2.2-1.03c-.21-.17-.3-.51-.23-.87,.06-.31,.25-.67,.6-.85v1.97c-.14-.08-.26-.16-.37-.24h0Zm2.68,3.83c-.08,.49-.41,1.01-.96,1.25v-2.79h.02c1.04,.38,.98,1.27,.94,1.53h0Z"/><path class="d" d="M297.57,23.84h7.45c.56,0,1.02-.45,1.02-1.02s-.45-1.02-1.02-1.02h-7.45c-.56,0-1.02,.45-1.02,1.02s.45,1.02,1.02,1.02h0Z"/><path class="d" d="M297.57,27.9h7.45c.56,0,1.02-.45,1.02-1.02s-.45-1.02-1.02-1.02h-7.45c-.56,0-1.02,.45-1.02,1.02s.45,1.02,1.02,1.02h0Z"/><path class="d" d="M297.57,31.97h7.45c.56,0,1.02-.45,1.02-1.02s-.45-1.02-1.02-1.02h-7.45c-.56,0-1.02,.45-1.02,1.02s.45,1.02,1.02,1.02h0Z"/><path class="d" d="M312.47,34h-14.9c-.56,0-1.02,.45-1.02,1.02s.45,1.02,1.02,1.02h14.9c.56,0,1.02-.45,1.02-1.02s-.45-1.02-1.02-1.02h0Z"/><path class="d" d="M312.47,38.06h-14.9c-.56,0-1.02,.45-1.02,1.02s.45,1.02,1.02,1.02h14.9c.56,0,1.02-.45,1.02-1.02s-.45-1.02-1.02-1.02h0Z"/><g><path class="d" d="M312.47,42.12h-14.9c-.56,0-1.02,.45-1.02,1.02s.45,1.02,1.02,1.02h14.9c.56,0,1.02-.45,1.02-1.02s-.45-1.02-1.02-1.02h0Z"/><path class="d" d="M326.48,36.14c-.34-.17-.74-.15-1.05,.07l-2.3,1.62-2.3-1.62c-.35-.25-.82-.25-1.17,0l-2.12,1.49V16.59c0-.38-.21-.73-.55-.9-.34-.17-.74-.15-1.05,.07l-2.3,1.62-2.3-1.62c-.35-.25-.82-.25-1.17,0l-2.29,1.62-2.29-1.62c-.35-.25-.82-.25-1.17,0l-2.29,1.62-2.29-1.62c-.35-.25-.82-.25-1.17,0l-2.29,1.62-2.29-1.62c-.31-.22-.72-.25-1.05-.07-.34,.17-.55,.52-.55,.9v27.22c0,3.55,2.89,6.43,6.43,6.43h22.35c3.17,0,5.76-2.58,5.76-5.76v-7.45c0-.38-.21-.73-.55-.9h0Zm-31.96,7.67V18.56l1.28,.9c.35,.25,.82,.25,1.17,0l2.29-1.62,2.29,1.62c.35,.25,.82,.25,1.17,0l2.29-1.62,2.29,1.62c.35,.25,.82,.25,1.17,0l2.29-1.62,2.3,1.62c.35,.25,.82,.25,1.17,0l1.28-.9v25.94c0,1.42,.52,2.72,1.37,3.72h-17.96c-2.43,0-4.4-1.97-4.4-4.4h0Zm30.47,.68c0,2.05-1.67,3.72-3.72,3.72s-3.72-1.67-3.72-3.72v-4.42c.14-.03,.28-.08,.41-.17l2.29-1.62,2.3,1.62c.35,.25,.82,.25,1.17,0l1.28-.9v5.49Z"/></g></g></g></g></svg>