<?xml version="1.0" encoding="UTF-8"?><svg xmlns="http://www.w3.org/2000/svg" viewBox="0 0 39.19 39.19"><defs><style>.d{fill:#fff;}.e{fill:#95080b;}</style></defs><g id="a"/><g id="b"><g id="c"><circle class="e" cx="19.6" cy="19.6" r="19.6" transform="translate(-8.12 19.6) rotate(-45)"/><g><path class="d" d="M13.69,25.51c-.39-.39-.39-1.03,0-1.43l10.39-10.39c.39-.39,1.03-.39,1.43,0,.39,.39,.39,1.03,0,1.43l-10.39,10.39c-.39,.39-1.03,.39-1.43,0Z"/><path class="d" d="M24.08,25.5L13.69,15.12c-.39-.39-.39-1.03,0-1.43,.39-.39,1.03-.39,1.43,0l10.39,10.39c.39,.39,.39,1.03,0,1.43-.39,.39-1.03,.39-1.43,0Z"/></g></g></g></svg>