<?xml version="1.0" encoding="UTF-8"?><svg xmlns="http://www.w3.org/2000/svg" viewBox="0 0 252.65 149.64"><defs><style>.d{fill:#600000;}</style></defs><g id="a"/><g id="b"><g id="c"><g><g><path class="d" d="M174.15,52.33c.25-.01,.5-.14,.67-.32,.15-.19,13.22-15.32,20.19-19.54,.9-.42,2.34-1.6,1.85-3.59-.43-1.79-2.53-4.22-4.02-4.62-.59-.17-1.16-.05-1.55,.35-.69,.65-.76,1.33-.84,1.81,0,0,0,.25-.05,.25-.37,.38-12.79,12.56-16.66,20.76-.37,.84-.86,2.09-.86,3.13,0,.63,.15,1.15,.56,1.54,.18,.18,.45,.27,.71,.24Z"/><path class="d" d="M45.86,16.09c-1.1,0-3.28,.38-5.66,2.87-4.77,4.96-9.97,17.9-9.97,50.71,0,.14,0,.32,0,.47-5.9,6.57-11.5,9.79-14.85,9.5,4.66-4.11,9.19-10.32,10.29-15.12,.22-.94,.34-1.81,.34-2.56,0-1.73-.56-3-1.67-3.75-2.28-1.56-6.08-.3-8.86,1.6-3.8,2.62-7.48,8.08-7.48,14.5,0,.81,.04,1.61,.17,2.46,.09,.42,.21,.8,.31,1.21-.98,.39-1.76,.56-2.35,.56-.84-.04-1.55-.37-2.15-.98-1.24-1.34-2.19-1.83-2.99-1.58-.6,.19-.89,.67-.98,1.03-.01,.14-.01,.27,0,.4,.54,2.3,2.69,6.69,7.19,6.69,1.09,0,2.32-.44,3.71-1.19,.59,.63,1.28,1.19,2.06,1.49,2.04,.92,5.7,1.24,11.44-2.58,1.8-1.19,3.82-2.97,5.92-5.16,.06,3.24,.17,6.62,.32,10.21,.85,18.5,2.61,34.61,5.27,47.93,.11,.52,.59,.86,1.12,.8,.48-.1,.81-.5,.81-.97v-.14c-2.38-22.34-3.32-40.38-3.32-54.91,0-2.7,.04-5.26,.1-7.74,6.77-8.17,13.58-19.07,16.59-27.4,1.39-3.85,1.99-7.94,1.99-11.78,0-5.86-1.37-11.11-3.46-14.07-1.42-2.08-2.92-2.51-3.88-2.51ZM1.93,77.09c0-.06,0-.07,0-.07,0,0,0,.06,.04,.07h-.04Zm9.98-1.23s-.03-.06-.03-.11c-.12-.64-.17-1.31-.17-1.94,0-4.57,2.68-7.86,4.41-9.49,2.34-2.19,4.48-2.95,5.03-2.94,.22,.17,.38,.53,.42,.99v.31c0,2.01-1.58,5.65-6.11,10.07-1.33,1.31-2.49,2.32-3.56,3.11ZM48.58,30.84c0,5.73-1.42,14.42-11.93,30.79-.56,.89-1.16,1.67-1.73,2.5,1.91-35.22,10.14-42.49,10.98-43.11,.81,.17,2.63,3.96,2.68,9.65v.17Z"/><path class="d" d="M67.27,32.2c4.33-1.42,7.58-4.11,8.24-6.85,.08-.35,.13-.7,.13-1.05,0-1.14-.45-2.18-1.28-3.02-.28-.29-.56-.5-.85-.67,.05-.16,.12-.32,.12-.48,0-.66-.37-1.2-.52-1.42-.93-1.4-2.97-1.44-4.57-.89-3.2,1.09-5.86,3.26-7.95,6.44-1.65,2.55-1.87,5.1-.54,6.76,1.38,1.82,4,2.26,7.22,1.18Zm-2.53-5.75c1.87-1.35,5.33-3.1,6.05-2.63v.04c.11,.16,.12,.3,.12,.46,0,.15-.01,.3-.11,.46-.55,1.33-3.03,2.6-4.12,2.97-1.71,.63-2.42,.65-2.75,.63,.06-.29,.22-.88,.8-1.94Z"/><path class="d" d="M252.27,103.01c-.42-.32-.84-.24-2.49-.01-4.99,.73-18.26,2.64-25.6-6.28-9.07-11.06-14.85-37.75-15.49-40.77-.45-2.11-1.81-3.44-2.88-4.48-.54-.48-1.01-.93-1.31-1.39-.26-.37-.68-.55-1.09-.48-1.02,.2-1.3,1.04-3.39,9.96-1.33,5.64-4.07,17.29-5.68,18.41-.81-.21-2.26-4.28-3.05-6.51-1.84-5.29-3.76-10.71-7.39-10.93-.37-.11-.79-.11-1.3,.1-1.04,.53-1.78,2.02-2.23,4.62l-.39,2.16c-.51,3.08-1.67,9.72-2.61,11.98-.92-2.52-2.15-9.93-2.8-13.74-.56-3.45-.79-4.68-.97-5.1-.31-.82-3.01-3.26-3.34-3.4-.32-.1-.68-.03-.94,.18l-1.36,1.14c-.23,.19-.34,.44-.34,.74-.03,7.87-1.47,19.53-4.46,19.53-1.57,0-3.51-7.96-5.06-19.32,.26-3.3,.44-7.14,.44-11.28,0-3.35-.1-6.86-.42-10.34-.13-1.21-1.1-3.51-3.99-3.51-.14,0-.25,.03-.36,.09-.46,.17-1.45,.92-1.45,3.81v.78c.06,5.64,.28,12.53,.87,19.29-1.07-1.32-3.18-3.27-6.21-3.27-3.32,0-9.39,1.46-12.58,11.13-1.15,3.57-1.41,7.22-.83,10.38-.08,.22-.81,2.05-2.26,2.06-.52-.23-1.37-1.96-2.37-9.03l-.19-1.44c-.36-2.18-1.04-4.87-2.26-6.87,0,0-.92-2.01-3.99-4.48-2.58-2.11-4.39,2.57-3.82,3.77,.42,.87,.07,2.82-.17,3.84l-.02,.03s-.03,.1-.03,.16c-.06,.28-.12,.48-.12,.48h0c-.85,3.21-4.49,10.52-5.57,10.84-.34-1.03-.67-2.55-.94-3.61l-.73-2.91c-.7-2.49-2.55-4.26-3.99-5.04-.38-.2-.83-.37-1.3-.47,.16-.34,.31-.73,.38-1.12,.13-.3,.19-.68,.19-1.09,0-.19-.01-.41-.04-.62-.21-1.61-1.39-3.93-4-5.62-1.33-.87-3.15-.92-5.08-.17-2.72,1.06-6,3.99-8.2,9.17-3.42,1.85-6.83,4.26-10.15,7.11-1.68-12.52-5.07-34.35-5.09-34.56,0,0-.45-1.31-1.86-.28-.45,.31-1.16,.58-1.82,1l-.03-.03s-2,1.04-2.47,2.69c-.45,1.61,.82,1.99,1.08,2.81,2.68,11.7,4.16,22.97,4.84,33.43-4.32,4.44-8.37,9.57-11.95,15.23-4.54,7.21-6.15,16.33-6.15,25.07s1.71,17.54,3.71,23.04c2.09,5.8,4.34,9.02,6.73,9.64,1.47,.4,2.41-.34,2.48-.42,6.72-5.27,10.96-48.93,10.96-69.14,0-.46,0-.91,0-1.34,2.91-3.1,5.63-5.59,7.89-7.49-.52,4.85,1.01,8.14,2.6,10.13,2.03,2.62,4.64,3.82,6.24,3.82,1.8,0,6.37-.91,9.39-9.25,.37-.98,.68-2.44,.99-3.87,0,0,.07-.41,.13-.7,.04,.08,.07,.15,.08,.19,.02,.15,2.32,13.53,6.17,13.53,1.82,0,4.06-3.04,9.16-17.86l.39-1.06c.13-.43,.49-.61,.79-.59,.37,.05,.67,.51,.78,1.26l.14,.9c1.13,8.16,3.04,17.57,8.07,17.57,1.66,0,3.03-.55,4.06-1.62,.21-.2,.37-.41,.54-.64,1.46,1.42,3.26,2.14,5.3,2.14,5.7,0,10.74-7.66,13.24-12.68,1.72,7.46,4.37,12.79,8.46,12.79,1.32,0,2.48-.55,3.49-1.59,2.06-2.06,3.18-6.11,3.78-10.12,1.72,6.29,3.97,11.89,6.61,11.89,5.11,0,7.18-14.46,7.57-17.94,.52,.74,1.22,2.01,1.8,4.15,2.59,9.49,4.93,13.72,7.53,13.72,3.38,0,8.05-13.89,9.93-20.25,2.2,8.61,7.95,30.28,23.23,38.52,7.05,3.82,15.24,4.22,24.3,1.1,.37-.1,.62-.41,.65-.75,.07-.35-.07-.71-.36-.94Zm-186.4,40.21c-1.57-2.54-4.57-12.8-4.57-24.51,0-8.1,1.46-16.89,5.89-24.15,2.2-3.6,4.46-6.79,6.7-9.64,.05,1.63,.08,3.28,.08,4.86,0,28.75-5.88,49.35-8.11,53.43Zm29.63-63.31c-1.54-.12-2.54-1.95-2.73-5.08-.51-7.27,2.66-11.51,4.04-12.99,1.45-1.54,2.63-2.05,3.01-2.05,1.03,0,2.05,2.1,2.37,3.04,.01,.07,.04,.16,.09,.23,.01,.02,.18,.48,.24,.68,.04,.12,.36,.78,1.04,1.06-.53,.93-.68,2.23-.68,3.64,0,.46,0,.94,.03,1.37-1.24,6.17-4.88,10.25-7.42,10.1Zm48.83-2.22l-.63,.62c-.78,.8-2.1,1.48-3.03,1.12-1.18-.44-1.84-2.32-1.97-5.3-.15-4.8,1.29-9.26,3.88-11.96,1.42-1.49,3.09-2.26,4.77-2.26,2.5,0,3.62,2.18,4.55,4.45,.06,.1,.07,.17,.12,.26-2.34,7.87-5.92,11.4-7.69,13.08Z"/></g><g><path class="d" d="M111.83,16.01h-3.14l-.08-13.16-8.04,10.92-8.03-11.01-.07,.09v13.16h-3.14V0h4.7l6.54,9.08L107.12,0h4.71V16.01Z"/><path class="d" d="M136.23,16.01h-3.45l-1.85-3.42h-10.74l-1.85,3.42h-3.45L123.62,0h3.89l8.72,16.01Zm-6.85-6.24l-3.81-7.09-3.84,7.09h7.65Z"/><path class="d" d="M154.79,16.01h-15.49V0h3.12V13.22h12.37v2.79Z"/><path class="d" d="M173.67,16.01h-15.48V0h3.11V13.22h12.37v2.79Z"/></g></g></g></g></svg>