<?xml version="1.0" encoding="UTF-8"?><svg xmlns="http://www.w3.org/2000/svg" viewBox="0 0 166.17 114.15"><defs><style>.d{fill:#fff;}.e{fill:#600000;}.f{fill:#95080b;}</style></defs><g id="a"/><g id="b"><g id="c"><circle class="f" cx="82.6" cy="35.66" r="35.66" transform="translate(-6.49 23.12) rotate(-15.34)"/><g><path class="e" d="M7.85,107.96l-2.99-9.05c-.02-.06-.06-.09-.12-.09H2.2c-.08,0-.12,.04-.12,.12v8.96c0,.2-.1,.29-.29,.29H.29c-.2,0-.29-.1-.29-.29v-19.92c0-.2,.1-.29,.29-.29H5.12c1.43,0,2.58,.52,3.46,1.57,.88,1.04,1.32,2.41,1.32,4.08,0,1.27-.27,2.36-.82,3.28s-1.29,1.56-2.23,1.93c-.08,.02-.11,.07-.09,.15l3.19,9.17,.03,.12c0,.14-.09,.21-.26,.21h-1.52c-.18,0-.29-.08-.35-.23Zm-5.77-18.33v7.41c0,.08,.04,.12,.12,.12h2.64c.9,0,1.62-.35,2.17-1.04,.55-.69,.82-1.62,.82-2.77s-.27-2.08-.82-2.78c-.55-.7-1.27-1.05-2.17-1.05H2.2c-.08,0-.12,.04-.12,.12Z"/><path class="e" d="M21.2,101.57h-6.68c-.08,0-.12,.04-.12,.12v2.14c0,.82,.23,1.49,.69,2.01,.46,.52,1.06,.78,1.8,.78,.62,0,1.16-.19,1.6-.57s.73-.88,.86-1.48c.06-.18,.17-.26,.32-.26l1.46,.06c.08,0,.15,.03,.21,.09s.08,.14,.06,.23c-.16,1.15-.63,2.07-1.42,2.74-.79,.67-1.82,1.01-3.09,1.01-1.39,0-2.49-.41-3.32-1.23s-1.25-1.9-1.25-3.25v-6.32c0-1.33,.42-2.41,1.25-3.24s1.94-1.25,3.32-1.25,2.52,.42,3.35,1.25c.83,.83,1.24,1.91,1.24,3.24v3.66c0,.2-.1,.29-.29,.29Zm-6.11-5.84c-.46,.52-.69,1.2-.69,2.04v1.96c0,.08,.04,.12,.12,.12h4.8c.08,0,.12-.04,.12-.12v-1.96c0-.84-.23-1.52-.7-2.04-.47-.52-1.08-.78-1.84-.78s-1.34,.26-1.8,.78Z"/><path class="e" d="M31.6,93.37h1.49c.2,0,.29,.1,.29,.29v14.23c0,2.09-.48,3.68-1.45,4.76-.97,1.08-2.58,1.58-4.85,1.48-.2-.02-.29-.13-.29-.32v-1.26c0-.2,.1-.29,.29-.29,1.56,.04,2.66-.32,3.28-1.07,.62-.75,.94-1.91,.94-3.47v-.88s-.01-.07-.04-.09-.06,0-.1,.03c-.33,.49-.76,.86-1.27,1.11-.52,.25-1.07,.38-1.66,.38-1.23,0-2.2-.41-2.91-1.23s-1.07-1.9-1.07-3.25v-6.18c0-1.37,.36-2.46,1.07-3.27s1.68-1.22,2.91-1.22c.59,0,1.14,.12,1.66,.37,.52,.24,.94,.61,1.27,1.1,.04,.06,.07,.08,.1,.07s.04-.04,.04-.1v-.91c0-.2,.1-.29,.29-.29Zm-.98,12.32c.46-.52,.69-1.19,.69-2.01v-5.92c0-.84-.23-1.52-.69-2.04-.46-.52-1.05-.78-1.77-.78s-1.35,.26-1.82,.78c-.47,.52-.7,1.2-.7,2.04v5.92c0,.82,.23,1.49,.7,2.01,.47,.52,1.07,.78,1.82,.78s1.31-.26,1.77-.78Z"/><path class="e" d="M36.92,90.21c-.3-.31-.45-.7-.45-1.17s.15-.88,.45-1.19,.7-.46,1.19-.46,.85,.15,1.16,.46c.3,.3,.45,.7,.45,1.19s-.15,.86-.45,1.17c-.3,.31-.69,.47-1.16,.47s-.88-.16-1.19-.47Zm.16,17.69v-14.23c0-.2,.1-.29,.29-.29h1.49c.19,0,.29,.1,.29,.29v14.23c0,.2-.1,.29-.29,.29h-1.49c-.2,0-.29-.1-.29-.29Z"/><path class="e" d="M43.56,107.3c-.81-.69-1.21-1.62-1.21-2.77v-.21c0-.19,.1-.29,.29-.29h1.41c.2,0,.29,.1,.29,.29v.18c0,.62,.23,1.15,.69,1.58,.46,.43,1.06,.64,1.8,.64,.7,0,1.27-.21,1.7-.64s.64-.98,.64-1.64c0-.51-.14-.93-.41-1.27s-.59-.61-.95-.8c-.36-.2-.9-.45-1.63-.76-.76-.31-1.39-.62-1.89-.92s-.93-.73-1.29-1.29-.54-1.26-.54-2.12c0-1.25,.38-2.24,1.16-2.96s1.81-1.08,3.12-1.08,2.38,.37,3.16,1.11c.78,.74,1.17,1.73,1.17,2.96v.09c0,.2-.1,.29-.29,.29h-1.35c-.2,0-.29-.1-.29-.29v-.18c0-.66-.22-1.21-.66-1.64-.44-.43-1.01-.64-1.71-.64s-1.26,.22-1.68,.66c-.42,.44-.63,.98-.63,1.63,0,.47,.13,.86,.38,1.19,.25,.32,.57,.59,.94,.79s.89,.45,1.55,.75c.8,.35,1.46,.68,1.98,1s.97,.75,1.36,1.32c.39,.57,.58,1.27,.58,2.11,0,1.21-.4,2.18-1.2,2.9-.8,.72-1.88,1.08-3.25,1.08s-2.43-.35-3.24-1.04Z"/><path class="e" d="M58.81,94.93h-2.23c-.08,0-.12,.04-.12,.12v8.96c0,.9,.16,1.52,.47,1.86s.79,.5,1.44,.48h.29c.19,0,.29,.1,.29,.29v1.26c0,.2-.1,.29-.29,.29h-.73c-1.15,0-2.03-.25-2.62-.75s-.89-1.44-.89-2.83v-9.58c0-.08-.04-.12-.12-.12h-1.14c-.2,0-.29-.1-.29-.29v-.97c0-.2,.1-.29,.29-.29h1.14c.08,0,.12-.04,.12-.12v-3.28c0-.2,.1-.29,.29-.29h1.46c.19,0,.29,.1,.29,.29v3.28c0,.08,.04,.12,.12,.12h2.23c.19,0,.29,.1,.29,.29v.97c0,.2-.1,.29-.29,.29Z"/><path class="e" d="M67.97,93.55c.14,.08,.19,.21,.15,.38l-.35,1.52c-.02,.18-.14,.23-.35,.18-.23-.12-.53-.18-.88-.18-.16,0-.27,0-.35,.03-.7,.04-1.28,.41-1.73,1.1-.45,.69-.67,1.54-.67,2.53v8.79c0,.2-.1,.29-.29,.29h-1.49c-.2,0-.29-.1-.29-.29v-14.23c0-.2,.1-.29,.29-.29h1.49c.19,0,.29,.1,.29,.29v1.76c0,.06,.01,.09,.04,.09s.06-.02,.1-.06c.57-1.48,1.49-2.23,2.78-2.23,.49,0,.91,.11,1.26,.32Z"/><path class="e" d="M77.81,94.47c.82,.89,1.23,2.07,1.23,3.56v9.87c0,.2-.1,.29-.29,.29h-1.49c-.2,0-.29-.1-.29-.29v-.88s-.01-.06-.04-.07c-.03,0-.06,0-.1,.04-.72,.96-1.81,1.44-3.25,1.44-1.07,0-2.01-.31-2.8-.92s-1.19-1.7-1.19-3.27c0-1.66,.48-2.87,1.43-3.64,.96-.77,2.22-1.16,3.78-1.16h2.05c.08,0,.12-.04,.12-.12v-1.14c0-.98-.22-1.76-.67-2.34s-1.05-.88-1.82-.88c-.59,0-1.09,.2-1.51,.59s-.67,.89-.75,1.49c0,.2-.1,.29-.29,.29l-1.64-.03c-.1,0-.17-.03-.22-.09s-.06-.13-.04-.21c.1-1.15,.57-2.08,1.41-2.8,.84-.71,1.87-1.07,3.1-1.07,1.37,0,2.46,.45,3.28,1.33Zm-1.73,11.36c.59-.52,.88-1.23,.88-2.15v-2.46c0-.08-.04-.12-.12-.12h-2.08c-.94,0-1.68,.25-2.23,.75-.55,.5-.82,1.24-.82,2.21,0,.86,.21,1.5,.63,1.92,.42,.42,.97,.63,1.65,.63,.8,0,1.49-.26,2.08-.78Z"/><path class="e" d="M88.56,93.55c.14,.08,.19,.21,.15,.38l-.35,1.52c-.02,.18-.14,.23-.35,.18-.23-.12-.53-.18-.88-.18-.16,0-.27,0-.35,.03-.7,.04-1.28,.41-1.73,1.1-.45,.69-.67,1.54-.67,2.53v8.79c0,.2-.1,.29-.29,.29h-1.49c-.2,0-.29-.1-.29-.29v-14.23c0-.2,.1-.29,.29-.29h1.49c.19,0,.29,.1,.29,.29v1.76c0,.06,.01,.09,.04,.09s.06-.02,.1-.06c.57-1.48,1.49-2.23,2.78-2.23,.49,0,.91,.11,1.26,.32Z"/><path class="e" d="M99.84,90.02c-.31,.5-.47,1.28-.47,2.33v.91c0,.08,.04,.12,.12,.12h2.26c.19,0,.29,.1,.29,.29v.97c0,.2-.1,.29-.29,.29h-2.26c-.08,0-.12,.04-.12,.12v12.86c0,.2-.1,.29-.29,.29h-1.46c-.2,0-.29-.1-.29-.29v-12.86c0-.08-.04-.12-.12-.12h-1.17c-.2,0-.29-.1-.29-.29v-.97c0-.2,.1-.29,.29-.29h1.17c.08,0,.12-.04,.12-.12v-.94c0-1.7,.31-2.93,.94-3.69,.62-.76,1.67-1.14,3.13-1.14h.41c.19,0,.29,.1,.29,.29l-.03,1.2c0,.2-.1,.29-.29,.29h-.35c-.74,0-1.27,.25-1.58,.75Z"/><path class="e" d="M112.43,94.47c.82,.89,1.23,2.07,1.23,3.56v9.87c0,.2-.1,.29-.29,.29h-1.49c-.2,0-.29-.1-.29-.29v-.88s-.01-.06-.04-.07c-.03,0-.06,0-.1,.04-.72,.96-1.81,1.44-3.25,1.44-1.07,0-2.01-.31-2.8-.92s-1.19-1.7-1.19-3.27c0-1.66,.48-2.87,1.43-3.64,.96-.77,2.22-1.16,3.78-1.16h2.05c.08,0,.12-.04,.12-.12v-1.14c0-.98-.22-1.76-.67-2.34s-1.05-.88-1.82-.88c-.59,0-1.09,.2-1.51,.59s-.67,.89-.75,1.49c0,.2-.1,.29-.29,.29l-1.64-.03c-.1,0-.17-.03-.22-.09s-.06-.13-.04-.21c.1-1.15,.57-2.08,1.41-2.8,.84-.71,1.87-1.07,3.1-1.07,1.37,0,2.46,.45,3.28,1.33Zm-1.73,11.36c.59-.52,.88-1.23,.88-2.15v-2.46c0-.08-.04-.12-.12-.12h-2.08c-.94,0-1.68,.25-2.23,.75-.55,.5-.82,1.24-.82,2.21,0,.86,.21,1.5,.63,1.92,.42,.42,.97,.63,1.65,.63,.8,0,1.49-.26,2.08-.78Z"/><path class="e" d="M117.83,107.2c-.83-.82-1.25-1.9-1.25-3.25v-6.32c0-1.33,.42-2.41,1.26-3.24,.84-.83,1.94-1.25,3.31-1.25,.92,0,1.73,.19,2.43,.56,.7,.37,1.25,.87,1.62,1.48,.38,.61,.57,1.29,.57,2.04v.29c0,.2-.1,.29-.29,.29l-1.49,.06c-.2,0-.29-.1-.29-.29v-.21c0-.64-.24-1.21-.72-1.69-.48-.48-1.09-.72-1.83-.72s-1.34,.26-1.8,.78c-.46,.52-.69,1.2-.69,2.04v6.03c0,.84,.23,1.52,.69,2.04,.46,.52,1.06,.78,1.8,.78s1.35-.24,1.83-.72,.72-1.04,.72-1.69v-.21c0-.19,.1-.29,.29-.29l1.49,.03c.2,0,.29,.1,.29,.29v.32c0,1.17-.42,2.14-1.27,2.91-.85,.77-1.97,1.16-3.35,1.16s-2.49-.41-3.32-1.23Z"/><path class="e" d="M133.52,94.93h-2.23c-.08,0-.12,.04-.12,.12v8.96c0,.9,.16,1.52,.47,1.86s.79,.5,1.44,.48h.29c.19,0,.29,.1,.29,.29v1.26c0,.2-.1,.29-.29,.29h-.73c-1.15,0-2.03-.25-2.62-.75s-.89-1.44-.89-2.83v-9.58c0-.08-.04-.12-.12-.12h-1.14c-.2,0-.29-.1-.29-.29v-.97c0-.2,.1-.29,.29-.29h1.14c.08,0,.12-.04,.12-.12v-3.28c0-.2,.1-.29,.29-.29h1.46c.19,0,.29,.1,.29,.29v3.28c0,.08,.04,.12,.12,.12h2.23c.19,0,.29,.1,.29,.29v.97c0,.2-.1,.29-.29,.29Z"/><path class="e" d="M143.47,93.37h1.49c.2,0,.29,.1,.29,.29v14.23c0,.2-.1,.29-.29,.29h-1.49c-.2,0-.29-.1-.29-.29v-1c0-.06-.01-.09-.04-.09s-.06,.02-.1,.06c-.61,1.02-1.58,1.52-2.93,1.52-1.17,0-2.1-.36-2.8-1.07-.69-.71-1.04-1.79-1.04-3.24v-10.43c0-.2,.1-.29,.29-.29h1.49c.19,0,.29,.1,.29,.29v9.96c0,.98,.2,1.71,.6,2.21s.98,.75,1.74,.75,1.39-.28,1.83-.85,.66-1.34,.66-2.31v-9.75c0-.2,.1-.29,.29-.29Z"/><path class="e" d="M155.1,93.55c.14,.08,.19,.21,.15,.38l-.35,1.52c-.02,.18-.14,.23-.35,.18-.23-.12-.53-.18-.88-.18-.16,0-.27,0-.35,.03-.7,.04-1.28,.41-1.73,1.1-.45,.69-.67,1.54-.67,2.53v8.79c0,.2-.1,.29-.29,.29h-1.49c-.2,0-.29-.1-.29-.29v-14.23c0-.2,.1-.29,.29-.29h1.49c.19,0,.29,.1,.29,.29v1.76c0,.06,.01,.09,.04,.09s.06-.02,.1-.06c.57-1.48,1.49-2.23,2.78-2.23,.49,0,.91,.11,1.26,.32Z"/><path class="e" d="M164.94,94.47c.82,.89,1.23,2.07,1.23,3.56v9.87c0,.2-.1,.29-.29,.29h-1.49c-.2,0-.29-.1-.29-.29v-.88s-.01-.06-.04-.07c-.03,0-.06,0-.1,.04-.72,.96-1.81,1.44-3.25,1.44-1.07,0-2.01-.31-2.8-.92s-1.19-1.7-1.19-3.27c0-1.66,.48-2.87,1.43-3.64,.96-.77,2.22-1.16,3.78-1.16h2.05c.08,0,.12-.04,.12-.12v-1.14c0-.98-.22-1.76-.67-2.34s-1.05-.88-1.82-.88c-.59,0-1.09,.2-1.51,.59s-.67,.89-.75,1.49c0,.2-.1,.29-.29,.29l-1.64-.03c-.1,0-.17-.03-.22-.09s-.06-.13-.04-.21c.1-1.15,.57-2.08,1.41-2.8,.84-.71,1.87-1.07,3.1-1.07,1.37,0,2.46,.45,3.28,1.33Zm-1.73,11.36c.59-.52,.88-1.23,.88-2.15v-2.46c0-.08-.04-.12-.12-.12h-2.08c-.94,0-1.68,.25-2.23,.75-.55,.5-.82,1.24-.82,2.21,0,.86,.21,1.5,.63,1.92,.42,.42,.97,.63,1.65,.63,.8,0,1.49-.26,2.08-.78Z"/></g><g><path class="d" d="M82.61,52.1c-1.03,0-1.86-.83-1.86-1.86V23.22c0-1.03,.83-1.86,1.86-1.86s1.86,.83,1.86,1.86v27.03c0,1.03-.83,1.86-1.86,1.86Z"/><path class="d" d="M96.12,38.59h-27.03c-1.03,0-1.86-.83-1.86-1.86s.83-1.86,1.86-1.86h27.03c1.03,0,1.86,.83,1.86,1.86s-.83,1.86-1.86,1.86Z"/></g></g></g></svg>